<svg width="121" height="116" viewBox="0 0 121 116" fill="none" xmlns="http://www.w3.org/2000/svg">
<path d="M114.081 44.11C114.081 64.4039 89.2734 84.6831 59.3851 84.6831C29.4969 84.6831 4.68887 64.4039 4.68887 44.11C4.68887 23.816 29.4969 20.8889 59.3851 20.8889C89.2734 20.8889 114.081 23.816 114.081 44.11Z" fill="#DA2929"/>
<rect x="107.715" y="45.1643" width="8.68194" height="8.46826" fill="#DA2929"/>
<rect x="107.715" y="53.6328" width="8.68194" height="8.46826" fill="#DA2929"/>
<rect x="99.0326" y="62.1007" width="8.68194" height="8.46826" fill="#DA2929"/>
<rect x="81.6687" y="70.5692" width="17.3639" height="8.46826" fill="#DA2929"/>
<rect x="64.3049" y="79.0372" width="8.68194" height="8.46826" fill="#DA2929"/>
<rect x="55.6229" y="79.0372" width="8.68194" height="8.46826" fill="#DA2929"/>
<rect x="72.9868" y="79.0372" width="8.68194" height="8.46826" fill="#DA2929"/>
<rect x="81.6687" y="79.0372" width="8.68194" height="8.46826" fill="#DA2929"/>
<rect x="107.715" y="36.6959" width="8.68194" height="8.46826" fill="#DA2929"/>
<rect x="3.53127" y="45.1643" width="8.68194" height="8.46826" fill="#DA2929"/>
<rect x="3.53127" y="53.6328" width="8.68194" height="8.46826" fill="#DA2929"/>
<rect x="12.2132" y="62.1007" width="8.68194" height="8.46826" fill="#DA2929"/>
<rect x="20.8951" y="70.5692" width="13.8911" height="8.46826" fill="#DA2929"/>
<rect x="38.259" y="79.0372" width="8.68194" height="8.46826" fill="#DA2929"/>
<rect x="29.5771" y="79.0372" width="8.68194" height="8.46826" fill="#DA2929"/>
<rect x="46.941" y="79.0372" width="8.68194" height="8.46826" fill="#DA2929"/>
<rect x="3.53127" y="36.6959" width="8.68194" height="8.46826" fill="#DA2929"/>
<rect x="20.8951" y="19.7594" width="8.68194" height="8.46826" fill="#DA2929"/>
<rect x="3.53127" y="28.2279" width="8.68194" height="8.46826" fill="#DA2929"/>
<rect x="12.2132" y="19.7594" width="8.68194" height="11.8556" fill="#DA2929"/>
<rect x="29.5771" y="19.7594" width="8.68194" height="8.46826" fill="#DA2929"/>
<rect x="38.259" y="19.7594" width="8.68194" height="8.46826" fill="#DA2929"/>
<rect x="46.941" y="19.7594" width="8.68194" height="8.46826" fill="#DA2929"/>
<rect x="55.6229" y="19.7594" width="8.68194" height="8.46826" fill="#DA2929"/>
<rect x="90.3506" y="19.7594" width="8.68194" height="8.46826" fill="#DA2929"/>
<rect x="107.715" y="28.2279" width="8.68194" height="8.46826" fill="#DA2929"/>
<rect x="64.3049" y="19.7594" width="8.68194" height="8.46826" fill="#DA2929"/>
<rect x="72.9868" y="19.7594" width="8.68194" height="8.46826" fill="#DA2929"/>
<rect x="81.6687" y="19.7594" width="8.68194" height="8.46826" fill="#DA2929"/>
<rect x="99.0326" y="19.7594" width="8.68194" height="11.8556" fill="#DA2929"/>
<rect x="25.5256" y="12.42" width="68.8768" height="11.291" fill="#DA2929"/>
<rect x="64.3051" y="11.291" width="8.68194" height="8.46826" fill="#94AB5C"/>
<rect x="72.987" y="11.291" width="8.68194" height="8.46826" fill="#94AB5C"/>
<rect x="81.6689" y="2.82257" width="8.68194" height="8.46826" fill="#94AB5C"/>
<rect x="55.6231" y="11.291" width="8.68194" height="8.46826" fill="#94AB5C"/>
<rect x="64.3051" y="19.7595" width="8.68194" height="8.46826" fill="#94AB5C"/>
<rect x="72.987" y="19.7595" width="8.68194" height="8.46826" fill="#94AB5C"/>
<rect x="81.6689" y="28.2274" width="8.68194" height="8.46826" fill="#94AB5C"/>
<rect x="72.987" y="28.2274" width="8.68194" height="8.46826" fill="#94AB5C"/>
<rect x="55.6231" y="19.7595" width="8.68194" height="8.46826" fill="#94AB5C"/>
<rect x="46.9412" y="19.7595" width="8.68194" height="8.46826" fill="#94AB5C"/>
<rect x="38.2592" y="28.2274" width="8.68194" height="8.46826" fill="#94AB5C"/>
<rect x="46.9412" y="11.291" width="8.68194" height="8.46826" fill="#94AB5C"/>
<rect x="29.5772" y="2.82266" width="8.68194" height="8.46826" fill="#94AB5C"/>
<rect x="38.2592" y="11.291" width="8.68194" height="8.46826" fill="#94AB5C"/>
<rect x="38.2592" y="2.82257" width="8.68194" height="8.46826" fill="#94AB5C"/>
<rect x="55.6231" y="2.82257" width="8.68194" height="8.46826" fill="#94AB5C"/>
<rect x="42.6689" y="62.0223" width="8.52206" height="8.63202" fill="#504439"/>
<rect x="38.08" y="87.5986" width="8.52206" height="8.31231" fill="#504439"/>
<rect x="76.4293" y="87.5986" width="8.84983" height="8.31231" fill="#504439"/>
<rect x="38.08" y="95.9111" width="8.52206" height="8.63202" fill="#504439"/>
<rect x="76.4293" y="95.9111" width="8.84983" height="8.63202" fill="#504439"/>
<rect x="35.4579" y="101.666" width="11.1442" height="8.31231" fill="#504439"/>
<rect x="73.8071" y="101.666" width="11.472" height="8.31231" fill="#504439"/>
<rect x="35.4579" y="107.42" width="20.6496" height="8.31231" fill="#504439"/>
<rect x="73.8071" y="107.42" width="20.9774" height="8.31231" fill="#504439"/>
<rect x="53.1576" y="14.0672" width="10.8165" height="10.8699" fill="#285530"/>
<rect x="62.9907" y="14.0672" width="10.4887" height="6.07438" fill="#285530"/>
<rect x="18.0013" y="22.5819" width="4.34097" height="4.23413" fill="#FFFFE5"/>
<rect x="13.6603" y="26.8159" width="4.34097" height="4.23413" fill="#FFFFE5"/>
<rect x="9.31917" y="31.0499" width="4.34097" height="4.23413" fill="#FFFFE5"/>
<rect x="4.97829" y="35.2839" width="4.34097" height="4.23413" fill="#FFFFE5"/>
<rect x="4.97829" y="39.5183" width="4.34097" height="4.23413" fill="#FFFFE5"/>
<rect x="4.97829" y="43.7523" width="4.34097" height="4.23413" fill="#FFFFE5"/>
<rect x="4.97829" y="47.9868" width="4.34097" height="4.23413" fill="#FFFFE5"/>
<rect x="9.31917" y="52.2208" width="4.34097" height="4.23413" fill="#FFFFE5"/>
<rect x="9.31917" y="56.4547" width="4.34097" height="4.23413" fill="#FFFFE5"/>
<rect x="13.6603" y="60.6887" width="4.34097" height="4.23413" fill="#FFFFE5"/>
<rect x="22.3422" y="22.5819" width="4.34097" height="4.23413" fill="#FFFFE5"/>
<rect x="26.6833" y="18.3474" width="4.34097" height="4.23413" fill="#FFFFE5"/>
<rect x="38.08" y="28.1336" width="4.5888" height="4.47586" fill="#FFFFE5"/>
<rect x="34.8023" y="104.863" width="4.5888" height="10.8699" fill="#FFFFE5"/>
<rect x="73.8071" y="104.863" width="4.5888" height="10.8699" fill="#FFFFE5"/>
<rect x="55.7797" y="9.27164" width="4.5888" height="4.15616" fill="#FFFFE5"/>
<rect x="72.8238" y="32.6098" width="8.84983" height="4.15616" fill="#FFFFE5"/>
<rect x="29.558" y="2.87708" width="13.1109" height="4.15616" fill="#FFFFE5"/>
<path d="M68.5013 85.3884H86.444C87.5051 81.3895 92.7528 71.8392 105.255 65.6291C117.757 59.4191 113.262 45.6346 109.451 39.5186C115.355 54.7615 84.6111 76.4497 68.5013 85.3884Z" fill="#8D1E20"/>
<rect x="70.093" y="81.8599" width="4.34097" height="4.23413" fill="#8D1E20"/>
<rect x="74.4339" y="81.8599" width="4.34097" height="4.23413" fill="#8D1E20"/>
<rect x="78.775" y="81.8599" width="4.34097" height="4.23413" fill="#8D1E20"/>
<rect x="83.1159" y="81.8599" width="4.34097" height="4.23413" fill="#8D1E20"/>
<rect x="65.752" y="81.8599" width="4.34097" height="4.23413" fill="#8D1E20"/>
<rect x="109.162" y="39.5186" width="4.34097" height="4.23413" fill="#8D1E20"/>
<rect x="109.162" y="43.7526" width="4.34097" height="4.23413" fill="#8D1E20"/>
<rect x="104.821" y="47.9871" width="4.34097" height="4.23413" fill="#8D1E20"/>
<rect x="104.821" y="52.2211" width="4.34097" height="4.23413" fill="#8D1E20"/>
<rect x="100.48" y="56.4551" width="4.34097" height="4.23413" fill="#8D1E20"/>
<rect x="96.1389" y="60.6895" width="4.34097" height="4.23413" fill="#8D1E20"/>
<rect x="91.7978" y="64.9235" width="4.34097" height="4.23413" fill="#8D1E20"/>
<rect x="87.457" y="69.1575" width="4.34097" height="4.23413" fill="#8D1E20"/>
<rect x="83.1159" y="73.3915" width="4.34097" height="4.23413" fill="#8D1E20"/>
<rect x="74.4339" y="77.626" width="4.34097" height="4.23413" fill="#8D1E20"/>
<rect x="78.775" y="77.626" width="4.34097" height="4.23413" fill="#8D1E20"/>
<rect x="109.162" y="47.9871" width="4.34097" height="4.23413" fill="#8D1E20"/>
<rect x="109.162" y="52.2211" width="4.34097" height="4.23413" fill="#8D1E20"/>
<rect x="109.162" y="56.4551" width="4.34097" height="4.23413" fill="#8D1E20"/>
<rect x="109.162" y="60.6895" width="4.34097" height="4.23413" fill="#8D1E20"/>
<rect x="104.821" y="60.6895" width="4.34097" height="4.23413" fill="#8D1E20"/>
<rect x="104.821" y="64.9235" width="4.34097" height="4.23413" fill="#8D1E20"/>
<rect x="100.48" y="64.9235" width="4.34097" height="4.23413" fill="#8D1E20"/>
<rect x="96.1389" y="69.1575" width="4.34097" height="4.23413" fill="#8D1E20"/>
<rect x="91.7978" y="73.3915" width="4.34097" height="4.23413" fill="#8D1E20"/>
<rect x="87.457" y="77.626" width="4.34097" height="4.23413" fill="#8D1E20"/>
<rect x="76.1015" y="62.0223" width="8.84983" height="8.63202" fill="#504439"/>
<rect x="58.0741" y="28.1336" width="14.7497" height="4.47586" fill="#8D1E20"/>
<rect x="87.9013" y="36.7658" width="6.22766" height="4.15616" fill="#8D1E20"/>
<rect x="76.4293" y="87.5986" width="8.84983" height="4.15616" fill="#2E2822"/>
<rect x="85.9347" y="111.576" width="8.84983" height="4.15616" fill="#2E2822"/>
<rect x="38.08" y="87.5986" width="8.52206" height="4.15616" fill="#2E2822"/>
<rect x="47.5854" y="111.576" width="8.52206" height="4.15616" fill="#2E2822"/>
<rect x="81.6737" y="23.9776" width="6.22766" height="4.15616" fill="#8D1E20"/>
<rect x="68.0671" y="87.5409" width="10.4183" height="5.89218" fill="#504439"/>
<rect x="42.3107" y="87.5409" width="10.4183" height="5.89218" fill="#504439"/>
<rect x="68.0671" y="87.5409" width="10.4183" height="4.2087" fill="#2E2822"/>
<rect x="42.3107" y="87.5409" width="10.4183" height="4.2087" fill="#2E2822"/>
<rect x="32.892" y="0.280151" width="4.10419" height="4.23676" fill="#504439"/>
<rect x="28.7878" y="0.280151" width="4.10419" height="4.23676" fill="#504439"/>
<rect x="36.9962" y="0.280151" width="4.10419" height="4.23676" fill="#504439"/>
<rect x="41.1006" y="0.280151" width="4.10419" height="4.23676" fill="#504439"/>
<rect x="28.7878" y="4.517" width="4.10419" height="4.23676" fill="#504439"/>
<rect x="24.6574" y="8.69754" width="4.63037" height="4.2087" fill="#504439"/>
<rect x="20.6059" y="12.9065" width="4.63037" height="7.29508" fill="#504439"/>
<rect x="20.5795" y="17.2277" width="4.10419" height="4.23676" fill="#504439"/>
<rect x="12.3711" y="17.2277" width="4.10419" height="4.23676" fill="#504439"/>
<rect x="16.4755" y="17.2277" width="4.10419" height="4.23676" fill="#504439"/>
<rect x="8.26694" y="17.2277" width="4.10419" height="4.23676" fill="#504439"/>
<rect x="8.26694" y="21.464" width="4.10419" height="4.23676" fill="#504439"/>
<rect x="8.26694" y="25.7009" width="4.10419" height="4.23676" fill="#504439"/>
<rect x="4.16277" y="25.7009" width="4.10419" height="4.23676" fill="#504439"/>
<rect x="0.0585785" y="25.7009" width="4.10419" height="4.23676" fill="#504439"/>
<rect x="0.0585785" y="29.9378" width="4.10419" height="4.23676" fill="#504439"/>
<rect x="0.0585785" y="34.1742" width="4.10419" height="4.23676" fill="#504439"/>
<rect x="0.0585785" y="38.4115" width="4.10419" height="4.23676" fill="#504439"/>
<rect x="0.0585785" y="42.6479" width="4.10419" height="4.23676" fill="#504439"/>
<rect x="0.0585785" y="46.8848" width="4.10419" height="4.23676" fill="#504439"/>
<rect x="0.0585785" y="51.1217" width="4.10419" height="4.23676" fill="#504439"/>
<rect x="0.0585785" y="55.3581" width="4.10419" height="4.23676" fill="#504439"/>
<rect x="0.0585785" y="59.595" width="4.10419" height="4.23676" fill="#504439"/>
<rect x="4.16277" y="59.595" width="4.10419" height="4.23676" fill="#504439"/>
<rect x="8.26694" y="59.595" width="4.10419" height="4.23676" fill="#504439"/>
<rect x="9.89809" y="63.6912" width="4.10419" height="4.23676" fill="#504439"/>
<rect x="9.89809" y="67.928" width="4.10419" height="4.23676" fill="#504439"/>
<rect x="13.3709" y="68.1804" width="7.23495" height="4.2087" fill="#504439"/>
<rect x="16.4755" y="72.3051" width="4.10419" height="4.23676" fill="#504439"/>
<rect x="20.5795" y="76.542" width="4.10419" height="4.23676" fill="#504439"/>
<rect x="27.262" y="87.2601" width="15.0487" height="4.2087" fill="#504439"/>
<rect x="52.7291" y="87.5409" width="15.6275" height="4.2087" fill="#504439"/>
<rect x="77.9066" y="87.2601" width="12.1547" height="4.2087" fill="#504439"/>
<rect x="92.0871" y="79.1235" width="9.26074" height="4.2087" fill="#504439"/>
<rect x="89.7721" y="79.1235" width="4.05157" height="10.1009" fill="#504439"/>
<rect x="107.136" y="64.8138" width="4.05157" height="5.89218" fill="#504439"/>
<rect x="113.213" y="62.2886" width="4.05157" height="5.89218" fill="#504439"/>
<rect x="116.107" y="54.7131" width="4.05157" height="9.25914" fill="#504439"/>
<rect x="114.371" y="49.6623" width="4.05157" height="5.33102" fill="#504439"/>
<rect x="107.136" y="20.2017" width="4.05157" height="8.69798" fill="#504439"/>
<rect x="93.8236" y="11.7843" width="4.05157" height="8.69798" fill="#504439"/>
<rect x="89.7721" y="1.9639" width="4.05157" height="11.2232" fill="#504439"/>
<rect x="77.3279" y="1.68314" width="4.05157" height="10.1009" fill="#504439"/>
<rect x="51.282" y="1.9639" width="4.05157" height="10.1009" fill="#504439"/>
<rect x="46.6517" y="1.68314" width="3.18338" height="10.1009" fill="#504439"/>
<rect x="64.0156" y="1.68314" width="4.05157" height="10.1009" fill="#504439"/>
<rect x="107.425" y="25.5323" width="10.9971" height="3.36696" fill="#504439"/>
<rect x="95.8495" y="17.1154" width="13.0229" height="3.36696" fill="#504439"/>
<rect x="81.3794" y="0.280151" width="8.68194" height="3.36696" fill="#504439"/>
<rect x="64.0156" y="8.41724" width="13.3123" height="3.36696" fill="#504439"/>
<rect x="54.4654" y="-0.000183105" width="10.7077" height="3.36696" fill="#504439"/>
<rect x="46.6517" y="8.69754" width="5.20917" height="3.36696" fill="#504439"/>
<rect x="44.3365" y="0.280151" width="3.76218" height="3.36696" fill="#504439"/>
<rect x="116.107" y="28.6186" width="4.05157" height="21.0435" fill="#504439"/>
<rect x="98.7434" y="70.7056" width="4.05157" height="10.1009" fill="#504439"/>
<rect x="24.6574" y="78.5619" width="5.20917" height="8.97857" fill="#504439"/>
<rect x="101.348" y="70.7056" width="7.52435" height="2.8058" fill="#504439"/>
<rect x="108.872" y="64.8138" width="7.52435" height="2.8058" fill="#504439"/>
</svg>
