<svg width="160" height="174" viewBox="0 0 160 174" fill="none" xmlns="http://www.w3.org/2000/svg">
<path d="M60.4042 67.1214C48.6471 67.2976 37.3567 70.839 25.918 73.7472C23.6274 73.7472 20.9479 74.5317 19.5869 76.7094C18.2101 78.9122 14.1527 78.3307 12.0705 79.6922C2.78712 85.7621 3.83757 104.417 4.79398 114.65C5.55994 122.846 7.02588 125.932 9.71021 133.614C12.0775 140.39 13.3972 149.621 18.6098 154.952C26.5796 163.103 37.9611 169.814 49.1597 171.919C57.9373 173.569 67.4792 172.89 76.3267 172.179C86.6316 171.351 96.9204 169.987 106.825 166.923C126.757 160.755 149.732 146.841 153.408 124.649C155.667 111.008 155.022 95.8133 146.97 84.2428C142.524 77.8542 132.977 75.469 125.821 73.0349C116.861 69.9872 114.097 67.1214 98.3154 68.8193C85.7864 68.5675 72.9336 66.9336 60.4042 67.1214Z" fill="#458244" stroke="#97B943" stroke-width="1.15169" stroke-linecap="round"/>
<rect width="5.47884" height="5.47884" transform="matrix(-1 0 0 1 27.3942 68.9019)" fill="#97B943"/>
<rect width="5.47884" height="5.47884" transform="matrix(-1 0 0 1 60.2672 63.4231)" fill="#97B943"/>
<rect width="5.47884" height="5.47884" transform="matrix(-1 0 0 1 54.7884 63.4231)" fill="#97B943"/>
<rect width="5.47884" height="5.47884" transform="matrix(-1 0 0 1 49.3096 63.4231)" fill="#97B943"/>
<rect width="5.47884" height="5.47884" transform="matrix(-1 0 0 1 43.8307 68.9019)" fill="#97B943"/>
<rect width="5.47884" height="5.47884" transform="matrix(-1 0 0 1 38.3519 68.9019)" fill="#97B943"/>
<rect width="5.47884" height="5.47884" transform="matrix(-1 0 0 1 32.873 68.9019)" fill="#97B943"/>
<rect width="5.47884" height="5.47884" transform="matrix(-1 0 0 1 65.7461 63.4231)" fill="#97B943"/>
<rect width="5.47884" height="5.47884" transform="matrix(-1 0 0 1 98.6191 63.4231)" fill="#97B943"/>
<rect width="5.47884" height="5.47884" transform="matrix(-1 0 0 1 93.1403 63.4231)" fill="#97B943"/>
<rect width="5.47884" height="5.47884" transform="matrix(-1 0 0 1 87.6614 63.4231)" fill="#97B943"/>
<rect width="5.47884" height="5.47884" transform="matrix(-1 0 0 1 82.1826 63.4231)" fill="#97B943"/>
<rect width="5.47884" height="5.47884" transform="matrix(-1 0 0 1 76.7037 63.4231)" fill="#97B943"/>
<rect width="5.47884" height="5.47884" transform="matrix(-1 0 0 1 71.2249 63.4231)" fill="#97B943"/>
<rect width="5.47884" height="5.47884" transform="matrix(-1 0 0 1 104.098 63.4231)" fill="#97B943"/>
<rect width="5.47884" height="5.47884" transform="matrix(-1 0 0 1 126.013 68.9019)" fill="#97B943"/>
<rect width="5.47884" height="5.47884" transform="matrix(-1 0 0 1 120.534 68.9019)" fill="#97B943"/>
<rect width="5.47884" height="5.47884" transform="matrix(-1 0 0 1 115.056 63.4231)" fill="#97B943"/>
<rect width="5.47884" height="5.47884" transform="matrix(-1 0 0 1 109.577 63.4231)" fill="#97B943"/>
<rect width="5.47884" height="5.47884" transform="matrix(-1 0 0 1 131.492 68.9019)" fill="#97B943"/>
<rect width="5.47884" height="5.47884" transform="matrix(-1 0 0 1 142.45 74.3808)" fill="#97B943"/>
<rect width="5.47884" height="5.47884" transform="matrix(-1 0 0 1 147.929 79.8597)" fill="#97B943"/>
<rect width="5.47884" height="5.47884" transform="matrix(-1 0 0 1 136.971 74.3808)" fill="#97B943"/>
<rect width="5.47884" height="5.47884" transform="matrix(-1 0 0 1 153.408 85.3385)" fill="#97B943"/>
<rect width="5.47884" height="5.47884" transform="matrix(-1 0 0 1 153.408 90.8174)" fill="#97B943"/>
<rect width="5.47884" height="5.47884" transform="matrix(-1 0 0 1 153.408 96.2963)" fill="#97B943"/>
<rect width="5.47884" height="5.47884" transform="matrix(-1 0 0 1 158.886 101.775)" fill="#97B943"/>
<rect width="5.47884" height="5.47884" transform="matrix(-1 0 0 1 158.886 107.254)" fill="#97B943"/>
<rect width="5.47884" height="5.47884" transform="matrix(-1 0 0 1 158.886 112.733)" fill="#97B943"/>
<rect width="5.47884" height="5.47884" transform="matrix(-1 0 0 1 158.886 118.211)" fill="#97B943"/>
<rect width="5.47884" height="5.47884" transform="matrix(-1 0 0 1 153.408 123.69)" fill="#97B943"/>
<rect width="5.47884" height="5.47884" transform="matrix(-1 0 0 1 153.408 129.169)" fill="#97B943"/>
<rect width="5.47884" height="5.47884" transform="matrix(-1 0 0 1 153.408 134.648)" fill="#97B943"/>
<rect width="5.47884" height="5.47884" transform="matrix(-1 0 0 1 147.929 140.127)" fill="#97B943"/>
<rect width="5.47884" height="5.47884" transform="matrix(-1 0 0 1 142.45 145.606)" fill="#97B943"/>
<rect width="5.47884" height="5.47884" transform="matrix(-1 0 0 1 136.971 151.085)" fill="#97B943"/>
<rect width="5.47884" height="5.47884" transform="matrix(-1 0 0 1 126.013 156.563)" fill="#97B943"/>
<rect width="5.47884" height="5.47884" transform="matrix(-1 0 0 1 115.056 162.042)" fill="#97B943"/>
<rect width="5.47884" height="5.47884" transform="matrix(-1 0 0 1 131.492 156.563)" fill="#97B943"/>
<rect width="5.47884" height="5.47884" transform="matrix(-1 0 0 1 120.534 162.042)" fill="#97B943"/>
<rect width="5.47884" height="5.47884" transform="matrix(-1 0 0 1 109.577 162.042)" fill="#97B943"/>
<rect width="5.47884" height="5.47884" transform="matrix(-1 0 0 1 93.1403 167.521)" fill="#97B943"/>
<rect width="5.47884" height="5.47884" transform="matrix(-1 0 0 1 104.098 167.521)" fill="#97B943"/>
<rect width="5.47884" height="5.47884" transform="matrix(-1 0 0 1 98.6191 167.521)" fill="#97B943"/>
<rect width="5.47884" height="5.47884" transform="matrix(-1 0 0 1 87.6614 167.521)" fill="#97B943"/>
<rect width="5.47884" height="5.47884" transform="matrix(-1 0 0 1 82.1826 167.521)" fill="#97B943"/>
<rect width="5.47884" height="5.47884" transform="matrix(-1 0 0 1 76.7037 167.521)" fill="#97B943"/>
<rect width="5.47884" height="5.47884" transform="matrix(-1 0 0 1 71.2249 167.521)" fill="#97B943"/>
<rect width="5.47884" height="5.47884" transform="matrix(-1 0 0 1 65.7461 167.521)" fill="#97B943"/>
<rect width="5.47884" height="5.47884" transform="matrix(-1 0 0 1 60.2672 167.521)" fill="#97B943"/>
<rect width="5.47884" height="5.47884" transform="matrix(-1 0 0 1 54.7884 167.521)" fill="#97B943"/>
<rect width="5.47884" height="5.47884" transform="matrix(-1 0 0 1 27.3942 156.563)" fill="#97B943"/>
<rect width="5.47884" height="5.47884" transform="matrix(-1 0 0 1 38.3519 162.042)" fill="#97B943"/>
<rect width="5.47884" height="5.47884" transform="matrix(-1 0 0 1 49.3096 167.521)" fill="#97B943"/>
<rect width="5.47884" height="5.47884" transform="matrix(-1 0 0 1 43.8307 167.521)" fill="#97B943"/>
<rect width="5.47884" height="5.47884" transform="matrix(-1 0 0 1 32.873 162.042)" fill="#97B943"/>
<rect width="5.47884" height="5.47884" transform="matrix(-1 0 0 1 21.9154 151.085)" fill="#97B943"/>
<rect width="5.47884" height="5.47884" transform="matrix(-1 0 0 1 16.4365 134.648)" fill="#97B943"/>
<rect width="5.47884" height="5.47884" transform="matrix(-1 0 0 1 16.4365 140.127)" fill="#97B943"/>
<rect width="5.47884" height="5.47884" transform="matrix(-1 0 0 1 16.4365 145.606)" fill="#97B943"/>
<rect width="5.47884" height="5.47884" transform="matrix(-1 0 0 1 16.4365 129.169)" fill="#97B943"/>
<rect width="5.47884" height="5.47884" transform="matrix(-1 0 0 1 5.47881 107.254)" fill="#97B943"/>
<rect width="5.47884" height="5.47884" transform="matrix(-1 0 0 1 5.47881 112.733)" fill="#97B943"/>
<rect width="5.47884" height="5.47884" transform="matrix(-1 0 0 1 10.9577 118.211)" fill="#97B943"/>
<rect width="5.47884" height="5.47884" transform="matrix(-1 0 0 1 10.9577 123.69)" fill="#97B943"/>
<rect width="5.47884" height="5.47884" transform="matrix(-1 0 0 1 10.9577 129.169)" fill="#97B943"/>
<rect width="5.47884" height="5.47884" transform="matrix(-1 0 0 1 10.9577 79.8597)" fill="#97B943"/>
<rect width="5.47884" height="5.47884" transform="matrix(-1 0 0 1 10.9577 85.3385)" fill="#97B943"/>
<rect width="5.47884" height="5.47884" transform="matrix(-1 0 0 1 5.47881 90.8174)" fill="#97B943"/>
<rect width="5.47884" height="5.47884" transform="matrix(-1 0 0 1 5.47881 96.2963)" fill="#97B943"/>
<rect width="5.47884" height="5.47884" transform="matrix(-1 0 0 1 5.47881 101.775)" fill="#97B943"/>
<rect width="5.47884" height="5.47884" transform="matrix(-1 0 0 1 16.4365 74.3808)" fill="#97B943"/>
<rect width="5.47884" height="5.47884" transform="matrix(-1 0 0 1 21.9154 74.3808)" fill="#97B943"/>
<path d="M15.6713 139.262C13.7246 139.138 13.3823 139.46 11.4325 139.46C10.3911 139.977 9.07448 139.9 9.03128 141.252C8.99671 142.334 9.42611 143.452 9.63807 144.487C9.87977 145.668 10.0262 146.875 10.3142 148.044C10.5756 149.104 11.1472 149.867 11.7705 150.676C12.7472 151.945 13.6539 153.498 14.8391 154.514C17.645 156.922 22.1087 155.402 24.4957 152.927C26.2186 151.14 25.5154 148.092 24.565 146.055C22.7769 142.222 19.446 139.504 15.6713 139.262Z" fill="#97B943" stroke="#97B943" stroke-width="1.15169" stroke-linecap="round"/>
<rect width="1.46102" height="1.69346" transform="matrix(-1 0 0 1 15.5234 137.935)" fill="#97B943"/>
<rect width="1.46102" height="1.69346" transform="matrix(-1 0 0 1 14.0623 137.935)" fill="#97B943"/>
<rect width="1.46102" height="1.69346" transform="matrix(-1 0 0 1 12.6013 137.935)" fill="#97B943"/>
<rect width="1.46102" height="1.69346" transform="matrix(-1 0 0 1 16.9844 137.935)" fill="#97B943"/>
<rect width="1.46102" height="1.69346" transform="matrix(-1 0 0 1 19.9064 139.629)" fill="#97B943"/>
<rect width="1.46102" height="1.69346" transform="matrix(-1 0 0 1 22.8285 141.322)" fill="#97B943"/>
<rect width="1.46102" height="1.69346" transform="matrix(-1 0 0 1 24.2896 143.016)" fill="#97B943"/>
<rect width="1.46102" height="1.69346" transform="matrix(-1 0 0 1 25.7506 144.709)" fill="#97B943"/>
<rect width="1.46102" height="1.69346" transform="matrix(-1 0 0 1 21.3675 139.629)" fill="#97B943"/>
<rect width="1.46102" height="1.69346" transform="matrix(-1 0 0 1 18.4454 139.629)" fill="#97B943"/>
<rect width="1.46102" height="1.69346" transform="matrix(-1 0 0 1 25.7506 146.403)" fill="#97B943"/>
<rect width="1.46102" height="1.69346" transform="matrix(-1 0 0 1 25.7506 148.096)" fill="#97B943"/>
<rect width="1.46102" height="1.69346" transform="matrix(-1 0 0 1 25.7506 149.79)" fill="#97B943"/>
<rect width="1.46102" height="1.69346" transform="matrix(-1 0 0 1 25.7506 151.483)" fill="#97B943"/>
<rect width="1.46102" height="1.69346" transform="matrix(-1 0 0 1 24.2896 153.177)" fill="#97B943"/>
<rect width="1.46102" height="1.69346" transform="matrix(-1 0 0 1 18.4454 154.87)" fill="#97B943"/>
<rect width="1.46102" height="1.69346" transform="matrix(-1 0 0 1 19.9064 154.87)" fill="#97B943"/>
<rect width="1.46102" height="1.69346" transform="matrix(-1 0 0 1 22.8285 153.177)" fill="#97B943"/>
<rect width="1.46102" height="1.69346" transform="matrix(-1 0 0 1 21.3675 154.87)" fill="#97B943"/>
<rect width="1.46102" height="1.69346" transform="matrix(-1 0 0 1 16.9844 154.87)" fill="#97B943"/>
<rect width="1.46102" height="1.69346" transform="matrix(-1 0 0 1 15.5234 153.177)" fill="#97B943"/>
<rect width="1.46102" height="1.69346" transform="matrix(-1 0 0 1 14.0623 151.483)" fill="#97B943"/>
<rect width="1.46102" height="1.69346" transform="matrix(-1 0 0 1 12.6013 149.79)" fill="#97B943"/>
<rect width="1.46102" height="1.69346" transform="matrix(-1 0 0 1 11.1403 148.096)" fill="#97B943"/>
<rect width="1.46102" height="1.69346" transform="matrix(-1 0 0 1 11.1403 146.403)" fill="#97B943"/>
<rect width="1.46102" height="1.69346" transform="matrix(-1 0 0 1 11.1403 144.709)" fill="#97B943"/>
<rect width="1.46102" height="1.69346" transform="matrix(-1 0 0 1 9.67929 143.016)" fill="#97B943"/>
<rect width="1.46102" height="1.69346" transform="matrix(-1 0 0 1 9.67929 141.322)" fill="#97B943"/>
<rect width="1.46102" height="1.69346" transform="matrix(-1 0 0 1 9.67929 139.629)" fill="#97B943"/>
<rect width="1.46102" height="1.69346" transform="matrix(-1 0 0 1 11.1403 139.629)" fill="#97B943"/>
<path d="M51.5637 117.06C49.8016 115.021 48.5146 113.403 45.7082 113.403C43.7822 113.403 39.1178 113.117 40.1864 116.094C41.6246 120.101 47.1991 123.621 51.503 122.077C53.7572 121.268 52.7247 118.403 51.5637 117.06Z" fill="#97B943" stroke="#97B943" stroke-width="1.15169" stroke-linecap="round"/>
<rect width="2.55679" height="2.46548" transform="matrix(-1 0 0 1 51.4098 113.828)" fill="#97B943"/>
<rect width="2.55679" height="2.46548" transform="matrix(-1 0 0 1 48.8531 111.363)" fill="#97B943"/>
<rect width="2.55679" height="2.46548" transform="matrix(-1 0 0 1 46.2962 111.363)" fill="#97B943"/>
<rect width="2.55679" height="2.46548" transform="matrix(-1 0 0 1 53.9666 116.293)" fill="#97B943"/>
<rect width="2.55679" height="2.46548" transform="matrix(-1 0 0 1 53.9666 118.759)" fill="#97B943"/>
<rect width="2.55679" height="2.46548" transform="matrix(-1 0 0 1 53.9666 121.224)" fill="#97B943"/>
<rect width="2.55679" height="2.46548" transform="matrix(-1 0 0 1 41.1826 116.293)" fill="#97B943"/>
<rect width="2.55679" height="2.46548" transform="matrix(-1 0 0 1 43.7395 118.759)" fill="#97B943"/>
<rect width="2.55679" height="2.46548" transform="matrix(-1 0 0 1 51.4098 121.224)" fill="#97B943"/>
<rect width="2.55679" height="2.46548" transform="matrix(-1 0 0 1 48.8531 121.224)" fill="#97B943"/>
<rect width="2.55679" height="2.46548" transform="matrix(-1 0 0 1 46.2962 121.224)" fill="#97B943"/>
<rect width="2.55679" height="2.46548" transform="matrix(-1 0 0 1 41.1826 113.828)" fill="#97B943"/>
<rect width="2.55679" height="2.46548" transform="matrix(-1 0 0 1 43.7395 111.363)" fill="#97B943"/>
<path d="M155.863 137.957C156.058 132.645 155.189 127.367 155.05 122.07C154.27 119.714 153.658 119.267 151.8 117.771C148.813 115.367 143.829 115.184 140.237 116.019C136.919 116.789 132.481 119.967 131.506 123.355C129.63 129.879 137.283 136.829 142.117 139.593C145.884 141.746 155.609 144.869 155.863 137.957Z" fill="#97B943" stroke="#97B943" stroke-width="1.15169" stroke-linecap="round"/>
<rect width="3.91346" height="3.93792" transform="matrix(-1 0 0 1 157.243 122.252)" fill="#97B943"/>
<rect width="3.91346" height="3.93792" transform="matrix(-1 0 0 1 157.243 126.19)" fill="#97B943"/>
<rect width="3.91346" height="3.93792" transform="matrix(-1 0 0 1 157.243 130.128)" fill="#97B943"/>
<rect width="3.91346" height="3.93792" transform="matrix(-1 0 0 1 157.243 134.066)" fill="#97B943"/>
<rect width="3.91346" height="3.93792" transform="matrix(-1 0 0 1 157.243 118.314)" fill="#97B943"/>
<rect width="3.91346" height="3.93792" transform="matrix(-1 0 0 1 157.243 138.003)" fill="#97B943"/>
<rect width="3.91346" height="3.93792" transform="matrix(-1 0 0 1 145.502 138.003)" fill="#97B943"/>
<rect width="3.91346" height="3.93792" transform="matrix(-1 0 0 1 153.329 141.942)" fill="#97B943"/>
<rect width="3.91346" height="3.93792" transform="matrix(-1 0 0 1 149.416 138.003)" fill="#97B943"/>
<rect width="3.91346" height="3.93792" transform="matrix(-1 0 0 1 133.762 122.252)" fill="#97B943"/>
<rect width="3.91346" height="3.93792" transform="matrix(-1 0 0 1 133.762 126.19)" fill="#97B943"/>
<rect width="3.91346" height="3.93792" transform="matrix(-1 0 0 1 133.762 130.128)" fill="#97B943"/>
<rect width="3.91346" height="3.93792" transform="matrix(-1 0 0 1 137.675 134.066)" fill="#97B943"/>
<rect width="3.91346" height="3.93792" transform="matrix(-1 0 0 1 141.589 134.066)" fill="#97B943"/>
<rect width="3.91346" height="3.93792" transform="matrix(-1 0 0 1 141.589 114.376)" fill="#97B943"/>
<rect width="3.91346" height="3.93792" transform="matrix(-1 0 0 1 133.762 118.314)" fill="#97B943"/>
<rect width="3.91346" height="3.93792" transform="matrix(-1 0 0 1 137.675 114.376)" fill="#97B943"/>
<rect width="3.91346" height="3.93792" transform="matrix(-1 0 0 1 149.416 114.376)" fill="#97B943"/>
<rect width="3.91346" height="3.93792" transform="matrix(-1 0 0 1 153.329 114.376)" fill="#97B943"/>
<rect width="3.91346" height="3.93792" transform="matrix(-1 0 0 1 145.502 114.376)" fill="#97B943"/>
<path d="M144.396 89.3666C144.769 87.3917 145.063 86.7335 147.029 86.7335C147.614 87.9037 148.046 85.4809 148.183 86.441C148.256 86.9493 147.917 87.9038 148.638 87.9038C150.395 87.9038 152.17 87.6506 153.758 88.4889C155.568 89.4438 156.162 91.5625 155.627 93.4624C154.704 96.7471 151.743 97.8531 148.638 97.3794C144.06 96.681 143.634 93.4039 144.396 89.3666Z" fill="#A1CB3C" stroke="#A1CB3C" stroke-width="1.15169" stroke-linecap="round"/>
<rect x="143.82" y="86.4343" width="2.73942" height="2.73942" fill="#A1CB3C"/>
<rect x="146.559" y="86.4343" width="2.73942" height="2.73942" fill="#A1CB3C"/>
<rect x="143.82" y="89.174" width="2.73942" height="2.73942" fill="#A1CB3C"/>
<rect x="143.82" y="91.9133" width="2.73942" height="2.73942" fill="#A1CB3C"/>
<rect x="143.82" y="94.6529" width="2.73942" height="2.73942" fill="#A1CB3C"/>
<rect x="146.559" y="94.6529" width="2.73942" height="2.73942" fill="#A1CB3C"/>
<rect x="152.038" y="94.6529" width="2.73942" height="2.73942" fill="#A1CB3C"/>
<rect x="149.299" y="97.3921" width="2.73942" height="2.73942" fill="#A1CB3C"/>
<rect x="154.777" y="91.9133" width="2.73942" height="2.73942" fill="#A1CB3C"/>
<rect x="154.777" y="89.174" width="2.73942" height="2.73942" fill="#A1CB3C"/>
<rect x="152.038" y="86.4343" width="2.73942" height="2.73942" fill="#A1CB3C"/>
<rect x="149.299" y="86.4343" width="2.73942" height="2.73942" fill="#A1CB3C"/>
<rect x="146.559" y="83.6951" width="2.73942" height="2.73942" fill="#A1CB3C"/>
<path d="M144.396 89.3666C144.769 87.3917 145.063 86.7335 147.029 86.7335C147.614 87.9037 148.046 85.4809 148.183 86.441C148.256 86.9493 147.917 87.9038 148.638 87.9038C150.395 87.9038 152.17 87.6506 153.758 88.4889C155.568 89.4438 156.162 91.5625 155.627 93.4624C154.704 96.7471 151.743 97.8531 148.638 97.3794C144.06 96.681 143.634 93.4039 144.396 89.3666Z" fill="#A1CB3C" stroke="#A1CB3C" stroke-width="1.15169" stroke-linecap="round"/>
<rect x="143.82" y="86.4343" width="2.73942" height="2.73942" fill="#A1CB3C"/>
<rect x="146.559" y="86.4343" width="2.73942" height="2.73942" fill="#A1CB3C"/>
<rect x="143.82" y="89.174" width="2.73942" height="2.73942" fill="#A1CB3C"/>
<rect x="143.82" y="91.9133" width="2.73942" height="2.73942" fill="#A1CB3C"/>
<rect x="143.82" y="94.6529" width="2.73942" height="2.73942" fill="#A1CB3C"/>
<rect x="146.559" y="94.6529" width="2.73942" height="2.73942" fill="#A1CB3C"/>
<rect x="152.038" y="94.6529" width="2.73942" height="2.73942" fill="#A1CB3C"/>
<rect x="149.299" y="97.3921" width="2.73942" height="2.73942" fill="#A1CB3C"/>
<rect x="154.777" y="91.9133" width="2.73942" height="2.73942" fill="#A1CB3C"/>
<rect x="154.777" y="89.174" width="2.73942" height="2.73942" fill="#A1CB3C"/>
<rect x="152.038" y="86.4343" width="2.73942" height="2.73942" fill="#A1CB3C"/>
<rect x="149.299" y="86.4343" width="2.73942" height="2.73942" fill="#A1CB3C"/>
<rect x="146.559" y="83.6951" width="2.73942" height="2.73942" fill="#A1CB3C"/>
<path d="M116.581 96.3993C118.311 96.9814 123.745 97.6131 121.92 97.6131C124.25 99.1646 120.143 98.501 122.767 99.25C124.966 99.8777 123.908 101.521 123.908 103.425C123.908 105.15 123.566 107.214 123.319 108.943C122.847 112.246 123.13 115.849 122.178 119.058C121.792 120.357 119.818 119.808 118.864 119.463C114.382 117.843 109.415 117.74 104.945 116.079C93.53 111.838 83.1258 105.242 71.6402 101.144C70.9008 100.881 67.9028 100.572 67.9028 99.434V99.407C67.9028 98.3458 67.9027 97.3033 68.0869 96.2521C68.5956 93.3482 68.8512 90.3754 69.5782 87.5159C70.1317 85.3385 71.1885 83.1471 71.5297 80.9315C71.6934 79.8685 72.5222 81.2698 73.0394 81.5568C74.8131 82.5412 78.8179 81.6982 80.7535 81.7223C83.7497 81.7598 86.9409 82.7412 89.8484 83.4512C91.0576 83.7465 92.328 84.6152 93.4937 85.1065C96.0725 86.1933 98.5161 87.5501 101.005 88.8217C106.177 91.4637 111.039 94.5342 116.581 96.3993Z" fill="#441510" stroke="#CA6F00" stroke-width="1.15169" stroke-linecap="round"/>
<rect x="117.008" y="94.4064" width="3.36106" height="3.35766" fill="#CA6F00"/>
<rect x="120.37" y="94.4064" width="3.36106" height="3.35766" fill="#CA6F00"/>
<rect x="113.647" y="94.4064" width="3.36106" height="3.35766" fill="#CA6F00"/>
<rect x="100.203" y="87.6909" width="3.36106" height="3.35766" fill="#CA6F00"/>
<rect x="106.925" y="91.0486" width="3.36106" height="3.35766" fill="#CA6F00"/>
<rect x="103.564" y="91.0486" width="3.36106" height="3.35766" fill="#CA6F00"/>
<rect x="110.286" y="94.4064" width="3.36106" height="3.35766" fill="#CA6F00"/>
<rect x="93.481" y="84.3336" width="3.36106" height="3.35766" fill="#CA6F00"/>
<rect x="96.8422" y="84.3336" width="3.36106" height="3.35766" fill="#CA6F00"/>
<rect x="90.12" y="80.9759" width="3.36106" height="3.35766" fill="#CA6F00"/>
<rect x="86.7589" y="80.9759" width="3.36106" height="3.35766" fill="#CA6F00"/>
<rect x="83.3979" y="80.9759" width="3.36106" height="3.35766" fill="#CA6F00"/>
<rect x="80.0368" y="80.9759" width="3.36106" height="3.35766" fill="#CA6F00"/>
<rect x="73.3147" y="80.9759" width="3.36106" height="3.35766" fill="#CA6F00"/>
<rect x="76.6758" y="80.9759" width="3.36106" height="3.35766" fill="#CA6F00"/>
<rect x="69.9536" y="80.9759" width="3.36106" height="3.35766" fill="#CA6F00"/>
<rect x="69.9536" y="77.6182" width="3.36106" height="3.35766" fill="#CA6F00"/>
<rect x="69.9536" y="84.3336" width="3.36106" height="3.35766" fill="#CA6F00"/>
<rect x="66.5926" y="84.3336" width="3.36106" height="3.35766" fill="#CA6F00"/>
<rect x="66.5926" y="87.6909" width="3.36106" height="3.35766" fill="#CA6F00"/>
<rect x="66.5926" y="91.0486" width="3.36106" height="3.35766" fill="#CA6F00"/>
<rect x="66.5926" y="94.4064" width="3.36106" height="3.35766" fill="#CA6F00"/>
<rect x="66.5926" y="97.764" width="3.36106" height="3.35766" fill="#CA6F00"/>
<rect x="69.9536" y="101.122" width="3.36106" height="3.35766" fill="#CA6F00"/>
<rect x="73.3147" y="101.122" width="3.36106" height="3.35766" fill="#CA6F00"/>
<rect x="80.0368" y="104.479" width="3.36106" height="3.35766" fill="#CA6F00"/>
<rect x="90.12" y="107.837" width="3.36106" height="3.35766" fill="#CA6F00"/>
<rect x="96.8422" y="111.195" width="3.36106" height="3.35766" fill="#CA6F00"/>
<rect x="76.6758" y="101.122" width="3.36106" height="3.35766" fill="#CA6F00"/>
<rect x="83.3979" y="104.479" width="3.36106" height="3.35766" fill="#CA6F00"/>
<rect x="86.7589" y="107.837" width="3.36106" height="3.35766" fill="#CA6F00"/>
<rect x="93.481" y="111.195" width="3.36106" height="3.35766" fill="#CA6F00"/>
<rect x="100.203" y="114.552" width="3.36106" height="3.35766" fill="#CA6F00"/>
<rect x="103.564" y="114.552" width="3.36106" height="3.35766" fill="#CA6F00"/>
<rect x="106.925" y="114.552" width="3.36106" height="3.35766" fill="#CA6F00"/>
<rect x="110.286" y="114.552" width="3.36106" height="3.35766" fill="#CA6F00"/>
<rect x="113.647" y="117.91" width="3.36106" height="3.35766" fill="#CA6F00"/>
<rect x="117.008" y="117.91" width="3.36106" height="3.35766" fill="#CA6F00"/>
<rect x="120.37" y="117.91" width="3.36106" height="3.35766" fill="#CA6F00"/>
<rect x="120.37" y="107.837" width="3.36106" height="3.35766" fill="#CA6F00"/>
<rect x="120.37" y="111.195" width="3.36106" height="3.35766" fill="#CA6F00"/>
<rect x="120.37" y="114.552" width="3.36106" height="3.35766" fill="#CA6F00"/>
<rect x="120.37" y="104.479" width="3.36106" height="3.35766" fill="#CA6F00"/>
<rect x="123.731" y="101.122" width="3.36106" height="3.35766" fill="#CA6F00"/>
<rect x="120.37" y="97.764" width="3.36106" height="3.35766" fill="#CA6F00"/>
<path d="M11.433 82.8981H33.0673C35.0407 82.8981 37.3409 81.3166 39.3935 81.2596C41.8602 81.1912 44.3411 81.3266 46.7872 81.6107C48.7869 81.843 51.7403 81.7661 53.5691 82.7811C54.8313 83.4816 55.8752 83.9751 56.9665 85.0047C57.5132 85.5206 58.4328 85.9444 59.1273 86.2271C61.5763 87.2238 63.0821 90.3707 63.6442 92.742C64.0449 94.4318 63.9957 96.1154 63.9957 97.8395C63.9957 98.5169 63.4954 98.4849 62.9413 98.6978C59.857 99.8829 55.8812 99.2829 52.6318 99.2829C46.0724 99.2829 39.5915 99.7511 33.0152 99.7511H32.9922C28.4527 99.7511 23.9479 99.7511 19.5296 100.895C18.5391 101.152 17.2236 101.433 16.3144 100.804C14.141 99.3013 12.334 96.9581 11.8625 94.3415C11.297 91.2027 11.1 88.049 10.8602 84.8747C10.7966 84.0329 10.3897 82.8981 11.433 82.8981Z" fill="#621F1F" stroke="black" stroke-width="0.383898" stroke-linecap="round"/>
<rect x="12.1433" y="81.8155" width="3.36106" height="3.35766" fill="black"/>
<rect x="15.5044" y="81.8155" width="3.36106" height="3.35766" fill="black"/>
<rect x="18.8654" y="81.8155" width="3.36106" height="3.35766" fill="black"/>
<rect x="22.2265" y="81.8155" width="3.36106" height="3.35766" fill="black"/>
<rect x="25.5876" y="81.8155" width="3.36106" height="3.35766" fill="black"/>
<rect x="28.9486" y="81.8155" width="3.36106" height="3.35766" fill="black"/>
<rect x="32.3097" y="81.8155" width="3.36106" height="3.35766" fill="black"/>
<rect x="8.78229" y="81.8155" width="3.36106" height="3.35766" fill="black"/>
<rect x="8.78229" y="85.1732" width="3.36106" height="3.35766" fill="black"/>
<rect x="8.78229" y="88.5309" width="3.36106" height="3.35766" fill="black"/>
<rect x="8.78229" y="91.8885" width="3.36106" height="3.35766" fill="black"/>
<rect x="12.1433" y="95.2459" width="3.36106" height="3.35766" fill="black"/>
<rect x="15.5044" y="98.6031" width="3.36106" height="3.35766" fill="black"/>
<rect x="18.8655" y="98.6031" width="3.36106" height="3.35766" fill="black"/>
<rect x="22.2266" y="98.6031" width="3.36106" height="3.35766" fill="black"/>
<rect x="25.5876" y="98.6031" width="3.36106" height="3.35766" fill="black"/>
<rect x="28.9487" y="98.6031" width="3.36106" height="3.35766" fill="black"/>
<rect x="32.3097" y="98.6031" width="3.36106" height="3.35766" fill="black"/>
<rect x="35.6708" y="98.6031" width="3.36106" height="3.35766" fill="black"/>
<rect x="39.0319" y="98.6031" width="3.36106" height="3.35766" fill="black"/>
<rect x="42.3929" y="98.6031" width="3.36106" height="3.35766" fill="black"/>
<rect x="45.754" y="98.6031" width="3.36106" height="3.35766" fill="black"/>
<rect x="49.1151" y="98.6031" width="3.36106" height="3.35766" fill="black"/>
<rect x="52.4761" y="98.6031" width="3.36106" height="3.35766" fill="black"/>
<rect x="55.8372" y="98.6031" width="3.36106" height="3.35766" fill="black"/>
<rect x="59.1982" y="98.6031" width="3.36106" height="3.35766" fill="black"/>
<rect x="62.5593" y="98.6031" width="3.36106" height="3.35766" fill="black"/>
<rect x="62.5593" y="95.2459" width="3.36106" height="3.35766" fill="black"/>
<rect x="62.5593" y="91.8885" width="3.36106" height="3.35766" fill="black"/>
<rect x="59.1982" y="85.1732" width="3.36106" height="3.35766" fill="black"/>
<rect x="62.5593" y="88.5309" width="3.36106" height="3.35766" fill="black"/>
<rect x="55.8372" y="85.1732" width="3.36106" height="3.35766" fill="black"/>
<rect x="55.8372" y="81.8155" width="3.36106" height="3.35766" fill="black"/>
<rect x="52.4761" y="81.8155" width="3.36106" height="3.35766" fill="black"/>
<rect x="45.7539" y="78.4578" width="3.36106" height="3.35766" fill="black"/>
<rect x="49.115" y="81.8155" width="3.36106" height="3.35766" fill="black"/>
<rect x="39.0319" y="78.4578" width="3.36106" height="3.35766" fill="black"/>
<rect x="42.3929" y="78.4578" width="3.36106" height="3.35766" fill="black"/>
<rect x="35.6708" y="78.4578" width="3.36106" height="3.35766" fill="black"/>
<path d="M152.029 90.3252C153.31 90.8288 154.07 91.6961 155.472 91.8517C158.047 91.8517 157.792 93.4531 157.792 95.4934C157.792 97.5316 159.561 104.941 156.798 105.094C155.641 105.158 154.74 106.232 153.649 106.4C151.816 106.682 149.785 105.869 148.034 105.425C137.626 102.789 126.942 101.6 116.552 98.62C110.926 97.0063 105.642 94.6771 100.203 92.5874C98.8855 92.0812 100.116 86.8272 100.295 85.8743C100.915 82.5733 101.968 80.4726 103.701 77.6898C104.497 76.4114 105.093 75.0782 106.776 75.8138C108.492 76.5639 110.08 77.625 111.397 78.9405C112.681 80.2234 114.87 80.4216 116.57 80.7613C123.832 82.2121 131.11 84.1344 138.313 85.8927C142.994 87.0354 147.546 88.5624 152.029 90.3252Z" fill="#813014" stroke="#371F00" stroke-width="1.15169" stroke-linecap="round"/>
<rect width="3.36106" height="3.35766" transform="matrix(-1 0 0 1 155.661 89.8737)" fill="#371F00"/>
<rect width="3.36106" height="3.35766" transform="matrix(-1 0 0 1 152.3 89.8737)" fill="#371F00"/>
<rect width="3.36106" height="3.35766" transform="matrix(-1 0 0 1 148.939 86.5163)" fill="#371F00"/>
<rect width="3.36106" height="3.35766" transform="matrix(-1 0 0 1 152.3 86.5163)" fill="#371F00"/>
<rect width="3.36106" height="3.35766" transform="matrix(-1 0 0 1 145.578 86.5163)" fill="#371F00"/>
<rect width="3.36106" height="3.35766" transform="matrix(-1 0 0 1 142.216 83.1585)" fill="#371F00"/>
<rect width="3.36106" height="3.35766" transform="matrix(-1 0 0 1 138.855 83.1585)" fill="#371F00"/>
<rect width="3.36106" height="3.35766" transform="matrix(-1 0 0 1 122.05 79.8009)" fill="#371F00"/>
<rect width="3.36106" height="3.35766" transform="matrix(-1 0 0 1 135.494 83.1585)" fill="#371F00"/>
<rect width="3.36106" height="3.35766" transform="matrix(-1 0 0 1 132.133 83.1585)" fill="#371F00"/>
<rect width="3.36106" height="3.35766" transform="matrix(-1 0 0 1 128.772 79.8009)" fill="#371F00"/>
<rect width="3.36106" height="3.35766" transform="matrix(-1 0 0 1 125.411 79.8009)" fill="#371F00"/>
<rect width="3.36106" height="3.35766" transform="matrix(-1 0 0 1 118.689 79.8009)" fill="#371F00"/>
<rect width="3.36106" height="3.35766" transform="matrix(-1 0 0 1 115.328 79.8009)" fill="#371F00"/>
<rect width="3.36106" height="3.35766" transform="matrix(-1 0 0 1 111.967 76.4432)" fill="#371F00"/>
<rect width="3.36106" height="3.35766" transform="matrix(-1 0 0 1 108.606 73.0855)" fill="#371F00"/>
<rect width="3.36106" height="3.35766" transform="matrix(-1 0 0 1 105.245 76.4432)" fill="#371F00"/>
<rect width="3.36106" height="3.35766" transform="matrix(-1 0 0 1 101.884 79.8009)" fill="#371F00"/>
<rect width="3.36106" height="3.35766" transform="matrix(-1 0 0 1 101.884 83.1585)" fill="#371F00"/>
<rect width="3.36106" height="3.35766" transform="matrix(-1 0 0 1 101.884 86.5163)" fill="#371F00"/>
<rect width="3.36106" height="3.35766" transform="matrix(-1 0 0 1 101.884 89.8737)" fill="#371F00"/>
<rect width="3.36106" height="3.35766" transform="matrix(-1 0 0 1 108.606 93.2313)" fill="#371F00"/>
<rect width="3.36106" height="3.35766" transform="matrix(-1 0 0 1 118.689 96.589)" fill="#371F00"/>
<rect width="3.36106" height="3.35766" transform="matrix(-1 0 0 1 115.328 96.589)" fill="#371F00"/>
<rect width="3.36106" height="3.35766" transform="matrix(-1 0 0 1 111.967 93.2313)" fill="#371F00"/>
<rect width="3.36106" height="3.35766" transform="matrix(-1 0 0 1 105.245 93.2313)" fill="#371F00"/>
<rect width="3.36106" height="3.35766" transform="matrix(-1 0 0 1 132.133 99.9467)" fill="#371F00"/>
<rect width="3.36106" height="3.35766" transform="matrix(-1 0 0 1 148.939 103.304)" fill="#371F00"/>
<rect width="3.36106" height="3.35766" transform="matrix(-1 0 0 1 145.578 103.304)" fill="#371F00"/>
<rect width="3.36106" height="3.35766" transform="matrix(-1 0 0 1 142.216 103.304)" fill="#371F00"/>
<rect width="3.36106" height="3.35766" transform="matrix(-1 0 0 1 138.855 99.9467)" fill="#371F00"/>
<rect width="3.36106" height="3.35766" transform="matrix(-1 0 0 1 135.494 99.9467)" fill="#371F00"/>
<rect width="3.36106" height="3.35766" transform="matrix(-1 0 0 1 128.772 99.9467)" fill="#371F00"/>
<rect width="3.36106" height="3.35766" transform="matrix(-1 0 0 1 125.411 99.9467)" fill="#371F00"/>
<rect width="3.36106" height="3.35766" transform="matrix(-1 0 0 1 122.05 96.589)" fill="#371F00"/>
<rect width="3.36106" height="3.35766" transform="matrix(-1 0 0 1 152.3 103.304)" fill="#371F00"/>
<rect width="3.36106" height="3.35766" transform="matrix(-1 0 0 1 155.661 103.304)" fill="#371F00"/>
<rect width="3.36106" height="3.35766" transform="matrix(-1 0 0 1 159.022 103.304)" fill="#371F00"/>
<rect width="3.36106" height="3.35766" transform="matrix(-1 0 0 1 159.022 96.589)" fill="#371F00"/>
<rect width="3.36106" height="3.35766" transform="matrix(-1 0 0 1 159.022 99.9467)" fill="#371F00"/>
<rect width="3.36106" height="3.35766" transform="matrix(-1 0 0 1 159.022 93.2313)" fill="#371F00"/>
<rect width="3.36106" height="3.35766" transform="matrix(-1 0 0 1 159.022 89.8737)" fill="#371F00"/>
<path d="M47.5212 97.3139C43.0213 97.3139 39.5946 95.9721 36.8065 92.218C33.4611 87.7135 35.5239 80.3486 36.9774 75.5893C37.9647 72.3561 38.8332 69.0968 39.4181 65.7632C39.6013 64.7187 39.9514 62.9867 39.3937 61.9839C39.3388 61.8853 39.2815 61.8014 39.2272 61.7324C38.787 61.4098 38.9739 61.41 39.2272 61.7324C39.2414 61.7427 39.2562 61.7534 39.2716 61.7645C41.3748 63.2652 43.3716 64.844 45.3002 66.5678C46.2066 67.378 49.3553 71.1478 49.7179 68.8841C50.2181 65.7607 51.21 62.769 51.8169 59.6676C52.4607 56.3775 52.3538 53.0538 52.3538 49.7196C52.3538 42.9715 53.1807 36.8762 54.3308 30.238C54.644 28.4305 54.8984 26.7245 54.9898 24.8983C55.0389 23.9172 55.8202 25.2402 55.9905 25.4103C60.4867 29.902 64.7532 33.3267 67.6327 39.1864C67.8207 39.5689 68.3148 41.5522 68.6334 40.3323C69.4795 37.0923 71.227 34.1451 72.4653 31.0427C75.0679 24.5221 78.5292 17.5944 78.7135 10.4152C78.7531 8.87146 78.3386 4.28441 78.7135 5.78252C81.0372 15.0678 85.9187 24.3356 90.0384 32.9445C91.9415 36.9213 93.8584 40.9239 96.0181 44.7699C96.5683 45.7497 97.5424 46.978 97.6046 48.1591C97.6628 49.264 96.8806 52.4192 97.4582 51.4751C99.7375 47.7491 104.473 45.334 107.172 41.7709C107.616 41.1854 108.108 40.5858 108.148 39.8203C108.156 39.6792 108.054 38.4513 108.368 38.5768C109.175 38.8993 109.389 43.7682 109.466 44.4042C109.894 47.8981 109.906 51.3761 109.906 54.8886C109.906 57.504 109.155 59.8329 112.322 56.6685C113.778 55.2144 115.291 53.5061 116.398 51.7677C116.862 51.0399 117.231 49.974 117.594 51.28C118.386 54.1283 117.814 57.7066 117.814 60.6672C117.814 63.6341 118.085 66.7338 117.789 69.6887C117.498 72.5958 117.893 77.9438 116.398 80.3882C115.047 82.5965 118.025 87.5056 116.398 89.5378C114.104 92.4019 107.139 94.9819 104.236 97.3139C101.027 99.8926 95.3691 96.3606 91.5516 97.3139C87.9116 98.223 83.6204 97.9376 79.9339 97.4115C75.9932 96.8491 72.1131 97.1759 68.1696 96.7775C64.1786 96.3744 60.441 95.9973 56.4054 95.9973C55.3941 95.9973 53.3108 95.6168 52.3538 96.0948C51.2124 96.665 51.0696 97.3139 49.7179 97.3139H47.5212Z" fill="#DA2929"/>
<path d="M47.5212 97.3139C43.0213 97.3139 39.5946 95.9721 36.8065 92.218C33.4611 87.7135 35.5239 80.3486 36.9774 75.5893C37.9647 72.3561 38.8332 69.0968 39.4181 65.7632C39.6013 64.7187 39.9514 62.9867 39.3937 61.9839C39.0745 61.4101 38.672 61.3366 39.2716 61.7644C41.3748 63.2652 43.3716 64.844 45.3002 66.5678C46.2066 67.378 49.3553 71.1478 49.7179 68.8841C50.2181 65.7607 51.21 62.769 51.8169 59.6676C52.4607 56.3775 52.3538 53.0538 52.3538 49.7196C52.3538 42.9715 53.1807 36.8762 54.3308 30.238C54.644 28.4305 54.8984 26.7245 54.9898 24.8983C55.0389 23.9172 55.8202 25.2402 55.9905 25.4103C60.4867 29.902 64.7532 33.3267 67.6327 39.1864C67.8207 39.5689 68.3148 41.5522 68.6334 40.3323C69.4795 37.0923 71.227 34.1451 72.4653 31.0427C75.0679 24.5221 78.5292 17.5944 78.7135 10.4152C78.7531 8.87146 78.3386 4.28441 78.7135 5.78252C81.0372 15.0678 85.9187 24.3356 90.0384 32.9445C91.9415 36.9213 93.8584 40.9239 96.0181 44.7699C96.5683 45.7497 97.5424 46.978 97.6046 48.1591C97.6628 49.264 96.8806 52.4192 97.4582 51.4751C99.7375 47.7491 104.473 45.334 107.172 41.7709C107.616 41.1854 108.108 40.5858 108.148 39.8203C108.156 39.6792 108.054 38.4513 108.368 38.5768C109.175 38.8993 109.389 43.7682 109.466 44.4042C109.894 47.8981 109.906 51.3761 109.906 54.8886C109.906 57.504 109.155 59.8329 112.322 56.6685C113.778 55.2144 115.291 53.5061 116.398 51.7677C116.862 51.0399 117.231 49.974 117.594 51.28C118.386 54.1283 117.814 57.7066 117.814 60.6672C117.814 63.6341 118.085 66.7338 117.789 69.6887C117.498 72.5958 117.893 77.9438 116.398 80.3882C115.047 82.5965 118.025 87.5056 116.398 89.5378C114.104 92.4019 107.139 94.9819 104.236 97.3139C101.027 99.8926 95.3691 96.3606 91.5516 97.3139C87.9116 98.223 83.6204 97.9376 79.9339 97.4115C75.9932 96.8491 72.1131 97.1759 68.1696 96.7775C64.1786 96.3744 60.441 95.9973 56.4054 95.9973C55.3941 95.9973 53.3108 95.6168 52.3538 96.0948C51.2124 96.665 51.0696 97.3139 49.7179 97.3139C48.6928 97.3139 47.6677 97.3139 46.6426 97.3139" stroke="#8C0707" stroke-width="1.15169" stroke-linecap="round"/>
<rect x="36.175" y="91.7202" width="3.36106" height="3.35766" fill="#8C0707"/>
<rect x="42.8971" y="95.0779" width="3.36106" height="3.35766" fill="#8C0707"/>
<rect x="39.536" y="95.0779" width="3.36106" height="3.35766" fill="#8C0707"/>
<rect x="46.2581" y="95.0779" width="3.36106" height="3.35766" fill="#8C0707"/>
<rect x="36.175" y="74.9321" width="3.36106" height="3.35766" fill="#8C0707"/>
<rect x="32.8139" y="78.2897" width="3.36106" height="3.35766" fill="#8C0707"/>
<rect x="32.8139" y="81.6475" width="3.36106" height="3.35766" fill="#8C0707"/>
<rect x="32.8139" y="85.0051" width="3.36106" height="3.35766" fill="#8C0707"/>
<rect x="32.8139" y="88.3625" width="3.36106" height="3.35766" fill="#8C0707"/>
<rect x="36.175" y="64.859" width="3.36106" height="3.35766" fill="#8C0707"/>
<rect x="36.175" y="68.2167" width="3.36106" height="3.35766" fill="#8C0707"/>
<rect x="36.175" y="71.5744" width="3.36106" height="3.35766" fill="#8C0707"/>
<rect x="39.536" y="61.5016" width="3.36106" height="3.35766" fill="#8C0707"/>
<rect x="36.175" y="61.5016" width="3.36106" height="3.35766" fill="#8C0707"/>
<rect x="42.8971" y="64.859" width="3.36106" height="3.35766" fill="#8C0707"/>
<rect x="46.2581" y="68.2167" width="3.36106" height="3.35766" fill="#8C0707"/>
<rect x="49.6192" y="68.2167" width="3.36106" height="3.35766" fill="#8C0707"/>
<rect x="49.6192" y="58.144" width="3.36106" height="3.35766" fill="#8C0707"/>
<rect x="49.6192" y="61.5016" width="3.36106" height="3.35766" fill="#8C0707"/>
<rect x="49.6192" y="64.859" width="3.36106" height="3.35766" fill="#8C0707"/>
<rect x="49.6192" y="48.0709" width="3.36106" height="3.35766" fill="#8C0707"/>
<rect x="49.6192" y="51.4286" width="3.36106" height="3.35766" fill="#8C0707"/>
<rect x="49.6192" y="54.7863" width="3.36106" height="3.35766" fill="#8C0707"/>
<rect x="52.9803" y="31.2825" width="3.36106" height="3.35766" fill="#8C0707"/>
<rect x="52.9803" y="34.6401" width="3.36106" height="3.35766" fill="#8C0707"/>
<rect x="49.6192" y="37.9979" width="3.36106" height="3.35766" fill="#8C0707"/>
<rect x="49.6192" y="41.3556" width="3.36106" height="3.35766" fill="#8C0707"/>
<rect x="49.6192" y="44.7133" width="3.36106" height="3.35766" fill="#8C0707"/>
<rect x="52.9803" y="27.9248" width="3.36106" height="3.35766" fill="#8C0707"/>
<rect x="52.9803" y="24.5671" width="3.36106" height="3.35766" fill="#8C0707"/>
<rect x="56.3413" y="24.5671" width="3.36106" height="3.35766" fill="#8C0707"/>
<rect x="59.7024" y="27.9248" width="3.36106" height="3.35766" fill="#8C0707"/>
<rect x="63.0634" y="31.2825" width="3.36106" height="3.35766" fill="#8C0707"/>
<rect x="63.0634" y="34.6401" width="3.36106" height="3.35766" fill="#8C0707"/>
<rect x="66.4245" y="37.9979" width="3.36106" height="3.35766" fill="#8C0707"/>
<rect x="69.7856" y="31.2825" width="3.36106" height="3.35766" fill="#8C0707"/>
<rect x="69.7856" y="34.6401" width="3.36106" height="3.35766" fill="#8C0707"/>
<rect x="69.7856" y="27.9248" width="3.36106" height="3.35766" fill="#8C0707"/>
<rect x="76.5077" y="11.1367" width="3.36106" height="3.35766" fill="#8C0707"/>
<rect x="76.5077" y="14.4944" width="3.36106" height="3.35766" fill="#8C0707"/>
<rect x="76.5077" y="17.8517" width="3.36106" height="3.35766" fill="#8C0707"/>
<rect x="73.1467" y="21.2095" width="3.36106" height="3.35766" fill="#8C0707"/>
<rect x="73.1467" y="24.5671" width="3.36106" height="3.35766" fill="#8C0707"/>
<rect x="76.5077" y="7.77899" width="3.36106" height="3.35766" fill="#8C0707"/>
<rect x="76.5077" y="4.42133" width="3.36106" height="3.35766" fill="#8C0707"/>
<rect x="79.8688" y="11.1367" width="3.36106" height="3.35766" fill="#8C0707"/>
<rect x="79.8688" y="14.4944" width="3.36106" height="3.35766" fill="#8C0707"/>
<rect x="83.2298" y="17.8517" width="3.36106" height="3.35766" fill="#8C0707"/>
<rect x="83.2298" y="21.2095" width="3.36106" height="3.35766" fill="#8C0707"/>
<rect x="86.5909" y="24.5671" width="3.36106" height="3.35766" fill="#8C0707"/>
<rect x="86.5909" y="27.9248" width="3.36106" height="3.35766" fill="#8C0707"/>
<rect x="89.952" y="31.2825" width="3.36106" height="3.35766" fill="#8C0707"/>
<rect x="89.952" y="34.6401" width="3.36106" height="3.35766" fill="#8C0707"/>
<rect x="93.313" y="37.9979" width="3.36106" height="3.35766" fill="#8C0707"/>
<rect x="93.313" y="41.3556" width="3.36106" height="3.35766" fill="#8C0707"/>
<rect x="93.313" y="44.7133" width="3.36106" height="3.35766" fill="#8C0707"/>
<rect x="96.674" y="44.7133" width="3.36106" height="3.35766" fill="#8C0707"/>
<rect x="96.674" y="48.0709" width="3.36106" height="3.35766" fill="#8C0707"/>
<rect x="96.674" y="51.4286" width="3.36106" height="3.35766" fill="#8C0707"/>
<rect x="103.396" y="41.3556" width="3.36106" height="3.35766" fill="#8C0707"/>
<rect x="100.035" y="44.7133" width="3.36106" height="3.35766" fill="#8C0707"/>
<rect x="106.757" y="41.3556" width="3.36106" height="3.35766" fill="#8C0707"/>
<rect x="106.757" y="37.9979" width="3.36106" height="3.35766" fill="#8C0707"/>
<rect x="106.757" y="44.7133" width="3.36106" height="3.35766" fill="#8C0707"/>
<rect x="106.757" y="48.0709" width="3.36106" height="3.35766" fill="#8C0707"/>
<rect x="106.757" y="51.4286" width="3.36106" height="3.35766" fill="#8C0707"/>
<rect x="106.757" y="54.7863" width="3.36106" height="3.35766" fill="#8C0707"/>
<rect x="110.118" y="54.7863" width="3.36106" height="3.35766" fill="#8C0707"/>
<rect x="113.479" y="51.4286" width="3.36106" height="3.35766" fill="#8C0707"/>
<rect x="116.84" y="48.0709" width="3.36106" height="3.35766" fill="#8C0707"/>
<rect x="116.84" y="51.4286" width="3.36106" height="3.35766" fill="#8C0707"/>
<rect x="116.84" y="54.7863" width="3.36106" height="3.35766" fill="#8C0707"/>
<rect x="116.84" y="58.144" width="3.36106" height="3.35766" fill="#8C0707"/>
<rect x="116.84" y="61.5016" width="3.36106" height="3.35766" fill="#8C0707"/>
<rect x="116.84" y="64.859" width="3.36106" height="3.35766" fill="#8C0707"/>
<rect x="116.84" y="68.2167" width="3.36106" height="3.35766" fill="#8C0707"/>
<rect x="116.84" y="71.5744" width="3.36106" height="3.35766" fill="#8C0707"/>
<rect x="116.84" y="74.9321" width="3.36106" height="3.35766" fill="#8C0707"/>
<rect x="113.479" y="78.2897" width="3.36106" height="3.35766" fill="#8C0707"/>
<rect x="113.479" y="81.6475" width="3.36106" height="3.35766" fill="#8C0707"/>
<rect x="113.479" y="85.0051" width="3.36106" height="3.35766" fill="#8C0707"/>
<rect x="113.479" y="88.3625" width="3.36106" height="3.35766" fill="#8C0707"/>
<rect x="110.118" y="91.7202" width="3.36106" height="3.35766" fill="#8C0707"/>
<rect x="103.396" y="95.0779" width="3.36106" height="3.35766" fill="#8C0707"/>
<rect x="106.757" y="91.7202" width="3.36106" height="3.35766" fill="#8C0707"/>
<rect x="89.952" y="95.0779" width="3.36106" height="3.35766" fill="#8C0707"/>
<rect x="93.313" y="95.0779" width="3.36106" height="3.35766" fill="#8C0707"/>
<rect x="96.674" y="95.0779" width="3.36106" height="3.35766" fill="#8C0707"/>
<rect x="100.035" y="95.0779" width="3.36106" height="3.35766" fill="#8C0707"/>
<rect x="79.8688" y="95.0779" width="3.36106" height="3.35766" fill="#8C0707"/>
<rect x="83.2298" y="95.0779" width="3.36106" height="3.35766" fill="#8C0707"/>
<rect x="86.5909" y="95.0779" width="3.36106" height="3.35766" fill="#8C0707"/>
<rect x="69.7856" y="95.0779" width="3.36106" height="3.35766" fill="#8C0707"/>
<rect x="73.1467" y="95.0779" width="3.36106" height="3.35766" fill="#8C0707"/>
<rect x="76.5077" y="95.0779" width="3.36106" height="3.35766" fill="#8C0707"/>
<rect x="66.4245" y="95.0779" width="3.36106" height="3.35766" fill="#8C0707"/>
<rect x="56.3413" y="95.0779" width="3.36106" height="3.35766" fill="#8C0707"/>
<rect x="59.7024" y="95.0779" width="3.36106" height="3.35766" fill="#8C0707"/>
<rect x="63.0634" y="95.0779" width="3.36106" height="3.35766" fill="#8C0707"/>
<rect x="52.9803" y="95.0779" width="3.36106" height="3.35766" fill="#8C0707"/>
<rect x="49.6192" y="95.0779" width="3.36106" height="3.35766" fill="#8C0707"/>
<path d="M59.7515 92.481C55.397 92.481 51.0183 92.2555 46.9304 90.5632C45.5653 89.998 42.4738 88.3524 42.4738 86.4707C42.4738 83.7336 42.7823 81.0273 42.7823 78.303" stroke="#DB1E1E" stroke-width="1.15169" stroke-linecap="round"/>
<path d="M48.4788 82.8469C50.1283 85.1127 47.9052 91.895 51.8499 91.895C54.1796 91.895 57.4701 94.2788 59.8918 94.8164C62.7495 95.4508 65.2455 95.9119 68.2181 95.9119C70.7115 95.9119 73.1377 96.6423 75.6304 96.6423H88.0386C92.7459 96.6423 95.8329 95.9873 99.9187 93.5383C103.277 91.5252 106.419 89.5803 108.793 86.4174C110.765 83.7912 109.539 78.4908 109.24 75.5028C109.215 75.2515 108.694 72.1682 108.509 72.3989C108.156 72.8402 107.846 73.54 107.595 74.0422C106.215 76.7999 106.288 80.4919 103.473 82.4005C100.791 84.2182 101.133 78.2378 100.548 76.923C99.5038 74.5754 99.7359 70.2901 99.7359 67.7937V60.3888C99.7359 59.7036 99.7017 59.1024 99.0049 59.7599C95.0741 63.4685 94.5774 69.3338 92.0596 73.9204C91.118 75.6357 90.6906 75.8108 89.7851 74.0016C88.9902 72.4135 88.7287 70.2492 88.201 68.524C86.6417 63.4258 84.0345 58.5965 82.2711 53.5519C81.242 50.6078 80.747 47.5203 79.7123 44.5849C79.7077 44.5719 79.1144 42.4863 78.9203 43.1648C76.9906 49.912 73.6529 55.9244 70.8784 62.4378C69.8858 64.7681 69.5368 66.333 66.9184 66.333C64.7495 66.333 62.6595 64.6752 61.1915 63.2087C60.5664 62.5843 59.1607 61.3199 59.1607 60.3482V61.9712C59.1607 63.9156 60.2216 65.4618 60.2574 67.4285C60.3433 72.153 59.3102 76.316 58.45 80.8993C58.1422 82.5389 58.024 83.5648 56.1552 83.0497C54.5435 82.6056 52.8372 82.408 51.2 82.0354C50.0527 81.7742 48.5028 80.9804 47.3415 80.9804C46.6124 80.9804 48.0499 82.2578 48.4788 82.8469Z" fill="#FFC277" stroke="#FFC277" stroke-width="1.15169" stroke-linecap="round"/>
<rect x="47.6613" y="83.8119" width="3.0837" height="3.08058" fill="#FFC277"/>
<rect x="47.6613" y="86.8927" width="3.0837" height="3.08058" fill="#FFC277"/>
<rect x="47.6613" y="89.9733" width="3.0837" height="3.08058" fill="#FFC277"/>
<rect x="50.745" y="89.9733" width="3.0837" height="3.08058" fill="#FFC277"/>
<rect x="47.6613" y="80.7314" width="3.0837" height="3.08058" fill="#FFC277"/>
<rect x="44.5776" y="80.7314" width="3.0837" height="3.08058" fill="#FFC277"/>
<rect x="50.745" y="80.7314" width="3.0837" height="3.08058" fill="#FFC277"/>
<rect x="53.8287" y="80.7314" width="3.0837" height="3.08058" fill="#FFC277"/>
<rect x="56.9124" y="80.7314" width="3.0837" height="3.08058" fill="#FFC277"/>
<rect x="59.9961" y="68.409" width="3.0837" height="3.08058" fill="#FFC277"/>
<rect x="56.9124" y="71.4898" width="3.0837" height="3.08058" fill="#FFC277"/>
<rect x="56.9124" y="74.5703" width="3.0837" height="3.08058" fill="#FFC277"/>
<rect x="56.9124" y="77.6509" width="3.0837" height="3.08058" fill="#FFC277"/>
<rect x="59.9961" y="65.3288" width="3.0837" height="3.08058" fill="#FFC277"/>
<rect x="56.9124" y="62.248" width="3.0837" height="3.08058" fill="#FFC277"/>
<rect x="56.9124" y="59.1674" width="3.0837" height="3.08058" fill="#FFC277"/>
<rect x="59.9961" y="62.248" width="3.0837" height="3.08058" fill="#FFC277"/>
<rect x="63.0798" y="65.3288" width="3.0837" height="3.08058" fill="#FFC277"/>
<rect x="66.1635" y="65.3288" width="3.0837" height="3.08058" fill="#FFC277"/>
<rect x="69.2472" y="62.248" width="3.0837" height="3.08058" fill="#FFC277"/>
<rect x="75.4146" y="43.7645" width="3.0837" height="3.08058" fill="#FFC277"/>
<rect x="75.4146" y="46.845" width="3.0837" height="3.08058" fill="#FFC277"/>
<rect x="75.4146" y="49.9258" width="3.0837" height="3.08058" fill="#FFC277"/>
<rect x="72.3309" y="53.0061" width="3.0837" height="3.08058" fill="#FFC277"/>
<rect x="72.3309" y="56.0869" width="3.0837" height="3.08058" fill="#FFC277"/>
<rect x="69.2472" y="59.1674" width="3.0837" height="3.08058" fill="#FFC277"/>
<rect x="78.4983" y="40.684" width="3.0837" height="3.08058" fill="#FFC277"/>
<rect x="78.4983" y="43.7645" width="3.0837" height="3.08058" fill="#FFC277"/>
<rect x="78.4983" y="46.845" width="3.0837" height="3.08058" fill="#FFC277"/>
<rect x="81.582" y="49.9258" width="3.0837" height="3.08058" fill="#FFC277"/>
<rect x="81.582" y="53.0061" width="3.0837" height="3.08058" fill="#FFC277"/>
<rect x="81.582" y="56.0869" width="3.0837" height="3.08058" fill="#FFC277"/>
<rect x="84.6657" y="59.1674" width="3.0837" height="3.08058" fill="#FFC277"/>
<rect x="84.6657" y="62.248" width="3.0837" height="3.08058" fill="#FFC277"/>
<rect x="84.6657" y="65.3288" width="3.0837" height="3.08058" fill="#FFC277"/>
<rect x="87.7494" y="68.409" width="3.0837" height="3.08058" fill="#FFC277"/>
<rect x="87.7494" y="71.4898" width="3.0837" height="3.08058" fill="#FFC277"/>
<rect x="90.8331" y="71.4898" width="3.0837" height="3.08058" fill="#FFC277"/>
<rect x="97.0005" y="59.1674" width="3.0837" height="3.08058" fill="#FFC277"/>
<rect x="93.9168" y="62.248" width="3.0837" height="3.08058" fill="#FFC277"/>
<rect x="93.9168" y="65.3288" width="3.0837" height="3.08058" fill="#FFC277"/>
<rect x="90.8331" y="68.409" width="3.0837" height="3.08058" fill="#FFC277"/>
<rect x="97.0005" y="62.248" width="3.0837" height="3.08058" fill="#FFC277"/>
<rect x="97.0005" y="65.3288" width="3.0837" height="3.08058" fill="#FFC277"/>
<rect x="97.0005" y="68.409" width="3.0837" height="3.08058" fill="#FFC277"/>
<rect x="97.0005" y="71.4898" width="3.0837" height="3.08058" fill="#FFC277"/>
<rect x="100.084" y="74.5703" width="3.0837" height="3.08058" fill="#FFC277"/>
<rect x="100.084" y="77.6509" width="3.0837" height="3.08058" fill="#FFC277"/>
<rect x="100.084" y="80.7314" width="3.0837" height="3.08058" fill="#FFC277"/>
<rect x="103.168" y="80.7314" width="3.0837" height="3.08058" fill="#FFC277"/>
<rect x="106.252" y="74.5703" width="3.0837" height="3.08058" fill="#FFC277"/>
<rect x="103.168" y="77.6509" width="3.0837" height="3.08058" fill="#FFC277"/>
<rect x="106.252" y="71.4898" width="3.0837" height="3.08058" fill="#FFC277"/>
<rect x="109.335" y="77.6509" width="3.0837" height="3.08058" fill="#FFC277"/>
<rect x="109.335" y="80.7314" width="3.0837" height="3.08058" fill="#FFC277"/>
<rect x="109.335" y="83.8119" width="3.0837" height="3.08058" fill="#FFC277"/>
<rect x="106.252" y="83.8119" width="3.0837" height="3.08058" fill="#FFC277"/>
<rect x="106.252" y="86.8927" width="3.0837" height="3.08058" fill="#FFC277"/>
<rect x="100.084" y="89.9733" width="3.0837" height="3.08058" fill="#FFC277"/>
<rect x="103.168" y="89.9733" width="3.0837" height="3.08058" fill="#FFC277"/>
<rect x="97.0005" y="93.0538" width="3.0837" height="3.08058" fill="#FFC277"/>
<rect x="87.7494" y="96.1343" width="3.0837" height="3.08058" fill="#FFC277"/>
<rect x="90.8331" y="96.1343" width="3.0837" height="3.08058" fill="#FFC277"/>
<rect x="93.9168" y="93.0538" width="3.0837" height="3.08058" fill="#FFC277"/>
<rect x="75.4146" y="96.1343" width="3.0837" height="3.08058" fill="#FFC277"/>
<rect x="78.4983" y="96.1343" width="3.0837" height="3.08058" fill="#FFC277"/>
<rect x="81.582" y="96.1343" width="3.0837" height="3.08058" fill="#FFC277"/>
<rect x="84.6657" y="96.1343" width="3.0837" height="3.08058" fill="#FFC277"/>
<rect x="69.2472" y="93.0538" width="3.0837" height="3.08058" fill="#FFC277"/>
<rect x="72.3309" y="96.1343" width="3.0837" height="3.08058" fill="#FFC277"/>
<rect x="66.1635" y="93.0538" width="3.0837" height="3.08058" fill="#FFC277"/>
<rect x="59.9961" y="93.0538" width="3.0837" height="3.08058" fill="#FFC277"/>
<rect x="63.0798" y="93.0538" width="3.0837" height="3.08058" fill="#FFC277"/>
<rect x="56.9124" y="93.0538" width="3.0837" height="3.08058" fill="#FFC277"/>
<rect x="53.8287" y="89.9733" width="3.0837" height="3.08058" fill="#FFC277"/>
<path d="M66.7189 95.7483H76.2553C76.4237 96.0011 76.1757 95.4139 76.2553 96.7645C76.2868 97.2999 76.7768 97.4266 77.0747 97.7242C78.0091 98.6577 81.4081 98.0347 82.6129 98.0347C84.745 98.0347 87.048 97.0958 88.9704 96.2422C91.5533 95.0955 94.3307 94.0186 96.5996 92.3186C98.282 91.0581 100.122 89.4173 101.05 87.4918C101.187 87.2082 102.722 84.6162 101.94 84.5702C100.929 84.5108 99.8592 85.2569 99.0861 85.8405C97.8063 86.8064 97.3231 86.6535 96.1475 85.8405C95.149 85.15 94.8321 83.7674 93.9294 83.046C93.3597 82.5907 93.1357 80.5201 93.0393 79.8704C92.9879 79.5241 92.7251 76.6082 92.2199 78.0215C91.8344 79.0999 91.5249 81.4456 90.1855 81.7193C88.8467 81.9928 87.0345 81.9137 85.6645 81.7616C83.2918 81.4983 81.085 79.4571 80.0698 77.4287C78.7192 74.7302 77.7894 71.7948 76.6508 69.0029C76.3673 68.3076 76.0118 67.6404 75.5489 68.5653C74.8503 69.961 74.8796 71.8742 74.4186 73.3922C74.0945 74.4596 72.9508 78.1343 71.4235 78.2191C70.501 78.2703 64.8089 74.8746 65.4615 76.7372C65.9188 78.0424 70.0254 88.526 67.5807 88.8749C65.1155 89.2267 62.6398 89.1431 60.1494 89.1431C59.8658 89.1431 58.1967 88.7941 58.0019 88.9455C57.91 89.0169 58.1928 89.2803 58.1997 89.3971C58.3257 91.5365 58.598 93.9083 60.5026 95.2402C62.0292 96.3077 64.9764 95.7483 66.7189 95.7483Z" fill="#FFDD77" stroke="#F28C0E" stroke-width="1.15169" stroke-linecap="round"/>
<rect x="66.5926" y="93.9025" width="3.36106" height="3.35766" fill="#F28C0E"/>
<rect x="69.9536" y="93.9025" width="3.36106" height="3.35766" fill="#F28C0E"/>
<rect x="73.3147" y="93.9025" width="3.36106" height="3.35766" fill="#F28C0E"/>
<rect x="59.8705" y="93.9025" width="3.36106" height="3.35766" fill="#F28C0E"/>
<rect x="63.2315" y="93.9025" width="3.36106" height="3.35766" fill="#F28C0E"/>
<rect x="56.5094" y="90.5449" width="3.36106" height="3.35766" fill="#F28C0E"/>
<rect x="56.5094" y="87.1872" width="3.36106" height="3.35766" fill="#F28C0E"/>
<rect x="59.8705" y="87.1872" width="3.36106" height="3.35766" fill="#F28C0E"/>
<rect x="63.2315" y="87.1872" width="3.36106" height="3.35766" fill="#F28C0E"/>
<rect x="66.5926" y="87.1872" width="3.36106" height="3.35766" fill="#F28C0E"/>
<rect x="63.2315" y="77.1144" width="3.36106" height="3.35766" fill="#F28C0E"/>
<rect x="66.5926" y="80.4722" width="3.36106" height="3.35766" fill="#F28C0E"/>
<rect x="66.5926" y="83.8295" width="3.36106" height="3.35766" fill="#F28C0E"/>
<rect x="63.2315" y="73.7568" width="3.36106" height="3.35766" fill="#F28C0E"/>
<rect x="66.5926" y="73.7568" width="3.36106" height="3.35766" fill="#F28C0E"/>
<rect x="69.9536" y="77.1144" width="3.36106" height="3.35766" fill="#F28C0E"/>
<rect x="73.3147" y="73.7568" width="3.36106" height="3.35766" fill="#F28C0E"/>
<rect x="73.3147" y="70.3991" width="3.36106" height="3.35766" fill="#F28C0E"/>
<rect x="73.3147" y="67.0414" width="3.36106" height="3.35766" fill="#F28C0E"/>
<rect x="76.6757" y="70.3991" width="3.36106" height="3.35766" fill="#F28C0E"/>
<rect x="76.6757" y="73.7568" width="3.36106" height="3.35766" fill="#F28C0E"/>
<rect x="80.0368" y="77.1144" width="3.36106" height="3.35766" fill="#F28C0E"/>
<rect x="83.3979" y="80.4722" width="3.36106" height="3.35766" fill="#F28C0E"/>
<rect x="86.7589" y="80.4722" width="3.36106" height="3.35766" fill="#F28C0E"/>
<rect x="90.12" y="80.4722" width="3.36106" height="3.35766" fill="#F28C0E"/>
<rect x="90.12" y="77.1144" width="3.36106" height="3.35766" fill="#F28C0E"/>
<rect x="93.481" y="80.4722" width="3.36106" height="3.35766" fill="#F28C0E"/>
<rect x="93.481" y="83.8295" width="3.36106" height="3.35766" fill="#F28C0E"/>
<rect x="96.8421" y="83.8295" width="3.36106" height="3.35766" fill="#F28C0E"/>
<rect x="100.203" y="83.8295" width="3.36106" height="3.35766" fill="#F28C0E"/>
<rect x="100.203" y="87.1872" width="3.36106" height="3.35766" fill="#F28C0E"/>
<rect x="93.481" y="90.5449" width="3.36106" height="3.35766" fill="#F28C0E"/>
<rect x="96.8421" y="90.5449" width="3.36106" height="3.35766" fill="#F28C0E"/>
<rect x="90.12" y="93.9025" width="3.36106" height="3.35766" fill="#F28C0E"/>
<rect x="86.7589" y="93.9025" width="3.36106" height="3.35766" fill="#F28C0E"/>
<rect x="83.3979" y="97.2603" width="3.36106" height="3.35766" fill="#F28C0E"/>
<rect x="80.0368" y="97.2603" width="3.36106" height="3.35766" fill="#F28C0E"/>
<rect x="76.6757" y="97.2603" width="3.36106" height="3.35766" fill="#F28C0E"/>
<path d="M58.8057 42.2991V34.8221L58.7907 34.7771C58.1744 32.93 57.7047 31.5225 57.7337 29.4672C57.7449 28.673 57.8579 25.0163 58.8057 27.1467C60.7823 31.5895 63.523 35.8254 63.7889 40.8712C63.8747 42.4997 63.9299 47.225 61.2278 46.3253C59.041 45.597 58.8057 44.4703 58.8057 42.2991Z" fill="#FFDD77" stroke="#FFDD77" stroke-width="1.15169" stroke-linecap="round"/>
<rect x="56.3413" y="34.6398" width="3.36106" height="3.35766" fill="#FFDD77"/>
<rect x="56.3413" y="37.9975" width="3.36106" height="3.35766" fill="#FFDD77"/>
<rect x="56.3413" y="41.3552" width="3.36106" height="3.35766" fill="#FFDD77"/>
<rect x="59.7024" y="44.713" width="3.36106" height="3.35766" fill="#FFDD77"/>
<rect x="63.0634" y="41.3552" width="3.36106" height="3.35766" fill="#FFDD77"/>
<rect x="63.0634" y="37.9975" width="3.36106" height="3.35766" fill="#FFDD77"/>
<rect x="59.7024" y="27.9248" width="3.36106" height="3.35766" fill="#FFDD77"/>
<rect x="59.7024" y="31.2825" width="3.36106" height="3.35766" fill="#FFDD77"/>
<rect x="59.7024" y="34.6398" width="3.36106" height="3.35766" fill="#FFDD77"/>
<rect x="56.3413" y="24.5671" width="3.36106" height="3.35766" fill="#FFDD77"/>
<rect x="56.3413" y="27.9248" width="3.36106" height="3.35766" fill="#FFDD77"/>
<rect x="56.3413" y="31.2825" width="3.36106" height="3.35766" fill="#FFDD77"/>
<path d="M89.8958 38.0484C89.8958 37.1904 89.9461 37.0425 90.0249 37.3776C90.5991 36.0709 92.919 36.4333 93.5487 37.6914C94.1076 38.8081 94.184 39.6334 94.184 40.8846C94.184 42.4132 95.2561 43.8665 95.2561 45.5453C95.2561 48.5294 94.4659 51.5584 93.2708 54.2719C93.1472 54.5524 91.5871 57.4891 91.0472 56.8898C90.1412 55.8841 90.9678 50.4247 90.9678 49.2144C90.9678 46.1125 90.31 38.5891 90.0249 37.3776C89.9422 37.5658 89.8958 37.7887 89.8958 38.0484Z" fill="#FFC277" stroke="#FFC277" stroke-width="1.15169" stroke-linecap="round"/>
<rect x="86.5909" y="35.6475" width="3.36106" height="3.35766" fill="#FFC277"/>
<rect x="89.952" y="35.6475" width="3.36106" height="3.35766" fill="#FFC277"/>
<rect x="89.952" y="39.0052" width="3.36106" height="3.35766" fill="#FFC277"/>
<rect x="89.952" y="42.3629" width="3.36106" height="3.35766" fill="#FFC277"/>
<rect x="89.952" y="45.7202" width="3.36106" height="3.35766" fill="#FFC277"/>
<rect x="89.952" y="49.0779" width="3.36106" height="3.35766" fill="#FFC277"/>
<rect x="89.952" y="52.4356" width="3.36106" height="3.35766" fill="#FFC277"/>
<rect x="89.952" y="55.7933" width="3.36106" height="3.35766" fill="#FFC277"/>
<rect x="93.313" y="45.7202" width="3.36106" height="3.35766" fill="#FFC277"/>
<rect x="93.313" y="49.0779" width="3.36106" height="3.35766" fill="#FFC277"/>
<rect x="93.313" y="52.4356" width="3.36106" height="3.35766" fill="#FFC277"/>
<rect x="93.313" y="42.3629" width="3.36106" height="3.35766" fill="#FFC277"/>
<rect x="93.313" y="39.0052" width="3.36106" height="3.35766" fill="#FFC277"/>
<rect x="93.313" y="35.6475" width="3.36106" height="3.35766" fill="#FFC277"/>
<path d="M107.426 66.4163C104.336 68.1528 104.905 66.0406 104.905 64.0958C104.905 62.9999 103.858 58.0067 104.726 57.3129C105.746 56.4979 107.581 53.5495 109.114 55.2503C110.419 56.6988 109.955 60.2157 109.731 61.9161L109.729 61.934C109.434 64.1778 109.415 65.2989 107.426 66.4163Z" fill="#FFDD77" stroke="#FFDD77" stroke-width="1.15169" stroke-linecap="round"/>
<rect x="106.757" y="64.8591" width="3.36106" height="3.35766" fill="#FFDD77"/>
<rect x="103.396" y="64.8591" width="3.36106" height="3.35766" fill="#FFDD77"/>
<rect x="103.396" y="61.5016" width="3.36106" height="3.35766" fill="#FFDD77"/>
<rect x="106.757" y="61.5016" width="3.36106" height="3.35766" fill="#FFDD77"/>
<rect x="106.757" y="54.7863" width="3.36106" height="3.35766" fill="#FFDD77"/>
<rect x="106.757" y="58.144" width="3.36106" height="3.35766" fill="#FFDD77"/>
<rect x="103.396" y="54.7863" width="3.36106" height="3.35766" fill="#FFDD77"/>
<rect x="106.757" y="51.4286" width="3.36106" height="3.35766" fill="#FFDD77"/>
<rect x="103.396" y="58.144" width="3.36106" height="3.35766" fill="#FFDD77"/>
<path d="M29.5552 105.602C28.2744 106.106 27.5145 106.973 26.1123 107.129C23.5378 107.129 23.7926 108.73 23.7926 110.77C23.7926 112.809 22.0235 120.218 24.7868 120.371C25.9431 120.435 26.8446 121.509 27.935 121.677C29.7679 121.959 31.7989 121.146 33.5503 120.702C43.9581 118.066 54.6424 116.877 65.0327 113.897C70.6585 112.283 75.9428 109.954 81.3815 107.864C82.6989 107.358 81.4683 102.104 81.2894 101.151C80.6698 97.8502 79.6167 95.7496 77.8834 92.9668C77.0872 91.6884 76.4918 90.3552 74.8088 91.0908C73.0926 91.8409 71.5045 92.902 70.1877 94.2174C68.9035 95.5004 66.7143 95.6986 65.0143 96.0383C57.7526 97.4891 50.4744 99.4114 43.2712 101.17C38.5899 102.312 34.0381 103.839 29.5552 105.602Z" fill="#813014" stroke="#371F00" stroke-width="1.15169" stroke-linecap="round"/>
<rect x="25.9237" y="105.151" width="3.36106" height="3.35766" fill="#371F00"/>
<rect x="29.2848" y="105.151" width="3.36106" height="3.35766" fill="#371F00"/>
<rect x="32.6458" y="101.793" width="3.36106" height="3.35766" fill="#371F00"/>
<rect x="29.2848" y="101.793" width="3.36106" height="3.35766" fill="#371F00"/>
<rect x="36.0068" y="101.793" width="3.36106" height="3.35766" fill="#371F00"/>
<rect x="39.3679" y="98.4355" width="3.36106" height="3.35766" fill="#371F00"/>
<rect x="42.729" y="98.4355" width="3.36106" height="3.35766" fill="#371F00"/>
<rect x="59.5343" y="95.0779" width="3.36106" height="3.35766" fill="#371F00"/>
<rect x="46.0901" y="98.4355" width="3.36106" height="3.35766" fill="#371F00"/>
<rect x="49.4511" y="98.4355" width="3.36106" height="3.35766" fill="#371F00"/>
<rect x="52.8122" y="95.0779" width="3.36106" height="3.35766" fill="#371F00"/>
<rect x="56.1732" y="95.0779" width="3.36106" height="3.35766" fill="#371F00"/>
<rect x="62.8953" y="95.0779" width="3.36106" height="3.35766" fill="#371F00"/>
<rect x="66.2564" y="95.0779" width="3.36106" height="3.35766" fill="#371F00"/>
<rect x="69.6175" y="91.7202" width="3.36106" height="3.35766" fill="#371F00"/>
<rect x="72.9785" y="88.3625" width="3.36106" height="3.35766" fill="#371F00"/>
<rect x="76.3396" y="91.7202" width="3.36106" height="3.35766" fill="#371F00"/>
<rect x="79.7007" y="95.0779" width="3.36106" height="3.35766" fill="#371F00"/>
<rect x="79.7007" y="98.4355" width="3.36106" height="3.35766" fill="#371F00"/>
<rect x="79.7007" y="101.793" width="3.36106" height="3.35766" fill="#371F00"/>
<rect x="79.7007" y="105.151" width="3.36106" height="3.35766" fill="#371F00"/>
<rect x="72.9785" y="108.508" width="3.36106" height="3.35766" fill="#371F00"/>
<rect x="62.8953" y="111.866" width="3.36106" height="3.35766" fill="#371F00"/>
<rect x="66.2564" y="111.866" width="3.36106" height="3.35766" fill="#371F00"/>
<rect x="69.6175" y="108.508" width="3.36106" height="3.35766" fill="#371F00"/>
<rect x="76.3396" y="108.508" width="3.36106" height="3.35766" fill="#371F00"/>
<rect x="49.4511" y="115.224" width="3.36106" height="3.35766" fill="#371F00"/>
<rect x="32.6458" y="118.581" width="3.36106" height="3.35766" fill="#371F00"/>
<rect x="36.0068" y="118.581" width="3.36106" height="3.35766" fill="#371F00"/>
<rect x="39.3679" y="118.581" width="3.36106" height="3.35766" fill="#371F00"/>
<rect x="42.729" y="115.224" width="3.36106" height="3.35766" fill="#371F00"/>
<rect x="46.0901" y="115.224" width="3.36106" height="3.35766" fill="#371F00"/>
<rect x="52.8122" y="115.224" width="3.36106" height="3.35766" fill="#371F00"/>
<rect x="56.1732" y="115.224" width="3.36106" height="3.35766" fill="#371F00"/>
<rect x="59.5343" y="111.866" width="3.36106" height="3.35766" fill="#371F00"/>
<rect x="29.2848" y="118.581" width="3.36106" height="3.35766" fill="#371F00"/>
<rect x="25.9237" y="118.581" width="3.36106" height="3.35766" fill="#371F00"/>
<rect x="22.5626" y="118.581" width="3.36106" height="3.35766" fill="#371F00"/>
<rect x="22.5626" y="111.866" width="3.36106" height="3.35766" fill="#371F00"/>
<rect x="22.5626" y="115.224" width="3.36106" height="3.35766" fill="#371F00"/>
<rect x="22.5626" y="108.508" width="3.36106" height="3.35766" fill="#371F00"/>
<rect x="22.5626" y="105.151" width="3.36106" height="3.35766" fill="#371F00"/>
<path d="M58.4973 99.0394C63.2192 98.4217 67.7539 95.8945 72.4591 95.7324C74.4787 95.7324 77.7167 94.9937 77.7167 97.6583C77.7167 102.023 71.9077 104.836 68.0778 104.836C65.93 104.836 64.0315 103.786 61.9245 103.786C59.5198 103.786 57.8203 104.065 55.6349 105.186C53.876 106.089 52.3085 107.858 50.3579 106.762C48.8524 105.916 47.2552 104.857 45.8987 103.786C44.6629 102.81 44.6345 102.622 45.8208 101.86C46.7825 101.242 47.6525 100.481 48.7806 100.207C51.9293 99.4414 55.2934 99.4585 58.4973 99.0394Z" fill="#B16145"/>
<rect x="65.9204" y="95.2461" width="3.36106" height="3.35766" fill="#B16145"/>
<rect x="59.1983" y="95.2461" width="3.36106" height="3.35766" fill="#B16145"/>
<rect x="62.5593" y="95.2461" width="3.36106" height="3.35766" fill="#B16145"/>
<rect x="69.2814" y="95.2461" width="3.36106" height="3.35766" fill="#B16145"/>
<rect x="55.8372" y="98.6038" width="3.36106" height="3.35766" fill="#B16145"/>
<rect x="49.1151" y="98.6038" width="3.36106" height="3.35766" fill="#B16145"/>
<rect x="52.4761" y="98.6038" width="3.36106" height="3.35766" fill="#B16145"/>
<rect x="45.754" y="98.6038" width="3.36106" height="3.35766" fill="#B16145"/>
<rect x="42.3929" y="101.961" width="3.36106" height="3.35766" fill="#B16145"/>
<rect x="45.754" y="101.961" width="3.36106" height="3.35766" fill="#B16145"/>
<rect x="49.1151" y="105.319" width="3.36106" height="3.35766" fill="#B16145"/>
<rect x="52.4761" y="105.319" width="3.36106" height="3.35766" fill="#B16145"/>
<rect x="52.4761" y="101.961" width="3.36106" height="3.35766" fill="#B16145"/>
<rect x="55.8372" y="101.961" width="3.36106" height="3.35766" fill="#B16145"/>
<rect x="59.1983" y="101.961" width="3.36106" height="3.35766" fill="#B16145"/>
<rect x="62.5593" y="101.961" width="3.36106" height="3.35766" fill="#B16145"/>
<rect x="65.9204" y="101.961" width="3.36106" height="3.35766" fill="#B16145"/>
<rect x="76.0036" y="98.6038" width="3.36106" height="3.35766" fill="#B16145"/>
<rect x="72.6425" y="101.961" width="3.36106" height="3.35766" fill="#B16145"/>
<rect x="69.2814" y="101.961" width="3.36106" height="3.35766" fill="#B16145"/>
<rect x="76.0036" y="95.2461" width="3.36106" height="3.35766" fill="#B16145"/>
<rect x="72.6425" y="95.2461" width="3.36106" height="3.35766" fill="#B16145"/>
<path d="M43.6986 104.668C47.482 103.601 51.6226 104.726 55.4771 104.48C55.937 105.055 56.0255 106.453 55.737 107.208C54.9591 109.245 50.7282 108.273 51.6917 112.068C49.8042 112.961 48.3778 108.686 46.2961 107.913C44.3502 107.19 40.4148 109.989 39.8737 107.816C39.6158 106.78 42.9015 104.892 43.6986 104.668Z" fill="#B3844A"/>
<rect width="3.35898" height="3.35973" transform="matrix(0.624865 0.780733 -0.78135 0.624093 52.6437 101.661)" fill="#B3844A"/>
<rect width="3.35898" height="3.35973" transform="matrix(0.624865 0.780733 -0.78135 0.624093 47.9196 101.135)" fill="#B3844A"/>
<rect width="3.35898" height="3.35973" transform="matrix(0.624865 0.780733 -0.78135 0.624093 45.2945 103.232)" fill="#B3844A"/>
<rect width="3.35898" height="3.35973" transform="matrix(0.624865 0.780733 -0.78135 0.624093 57.3677 102.186)" fill="#B3844A"/>
<rect width="3.35898" height="3.35973" transform="matrix(0.624865 0.780733 -0.78135 0.624093 40.5705 102.706)" fill="#B3844A"/>
<rect width="3.35898" height="3.35973" transform="matrix(0.624865 0.780733 -0.78135 0.624093 40.0443 107.425)" fill="#B3844A"/>
<rect width="3.35898" height="3.35973" transform="matrix(0.624865 0.780733 -0.78135 0.624093 42.6693 105.329)" fill="#B3844A"/>
<rect width="3.35898" height="3.35973" transform="matrix(0.624865 0.780733 -0.78135 0.624093 47.3934 105.854)" fill="#B3844A"/>
<rect width="3.35898" height="3.35973" transform="matrix(0.624865 0.780733 -0.78135 0.624093 49.4923 108.477)" fill="#B3844A"/>
<rect width="3.35898" height="3.35973" transform="matrix(0.624865 0.780733 -0.78135 0.624093 51.5912 111.099)" fill="#B3844A"/>
<rect width="3.35898" height="3.35973" transform="matrix(0.624865 0.780733 -0.78135 0.624093 54.7426 104.283)" fill="#B3844A"/>
<rect width="3.35898" height="3.35973" transform="matrix(0.624865 0.780733 -0.78135 0.624093 52.1175 106.38)" fill="#B3844A"/>
<path d="M142.355 89.4492C146.236 90.0717 149.519 92.832 153.119 94.2287C153.295 94.9432 152.786 96.2491 152.207 96.8129C150.643 98.3333 147.214 95.6744 146.491 99.5214C144.402 99.5391 144.908 95.061 143.345 93.485C141.884 92.0117 137.135 92.8973 137.559 90.6984C137.761 89.6503 141.537 89.318 142.355 89.4492Z" fill="#B3844A"/>
<rect width="3.35785" height="3.36087" transform="matrix(0.238253 0.971203 -0.971315 0.237797 151.736 90.4799)" fill="#B3844A"/>
<rect width="3.35785" height="3.36087" transform="matrix(0.238253 0.971203 -0.971315 0.237797 147.672 88.018)" fill="#B3844A"/>
<rect width="3.35785" height="3.36087" transform="matrix(0.238253 0.971203 -0.971315 0.237797 144.407 88.8171)" fill="#B3844A"/>
<rect width="3.35785" height="3.36087" transform="matrix(0.238253 0.971203 -0.971315 0.237797 155.801 92.942)" fill="#B3844A"/>
<rect width="3.35785" height="3.36087" transform="matrix(0.238253 0.971203 -0.971315 0.237797 140.343 86.3553)" fill="#B3844A"/>
<rect width="3.35785" height="3.36087" transform="matrix(0.238253 0.971203 -0.971315 0.237797 137.878 90.4154)" fill="#B3844A"/>
<rect width="3.35785" height="3.36087" transform="matrix(0.238253 0.971203 -0.971315 0.237797 141.143 89.6163)" fill="#B3844A"/>
<rect width="3.35785" height="3.36087" transform="matrix(0.238253 0.971203 -0.971315 0.237797 145.207 92.0784)" fill="#B3844A"/>
<rect width="3.35785" height="3.36087" transform="matrix(0.238253 0.971203 -0.971315 0.237797 146.007 95.3394)" fill="#B3844A"/>
<rect width="3.35785" height="3.36087" transform="matrix(0.238253 0.971203 -0.971315 0.237797 146.807 98.6007)" fill="#B3844A"/>
<rect width="3.35785" height="3.36087" transform="matrix(0.238253 0.971203 -0.971315 0.237797 152.536 93.7411)" fill="#B3844A"/>
<rect width="3.35785" height="3.36087" transform="matrix(0.238253 0.971203 -0.971315 0.237797 149.272 94.5403)" fill="#B3844A"/>
<rect x="31.378" y="40.4915" width="7.45423" height="13.0317" fill="#F67321"/>
<rect x="62.3596" width="7.45423" height="13.0317" fill="#CE1818"/>
<rect x="125.954" y="62.1333" width="7.45423" height="13.0317" fill="#FFC277"/>
</svg>
